<?xml version="1.0" encoding="iso-8859-1"?>
<!-- Generator: Adobe Illustrator 19.0.0, SVG Export Plug-In . SVG Version: 6.00 Build 0)  -->
<svg version="1.1" id="Capa_1" xmlns="http://www.w3.org/2000/svg" xmlns:xlink="http://www.w3.org/1999/xlink" x="0px" y="0px"
	 viewBox="0 0 512 512" style="enable-background:new 0 0 512 512;" xml:space="preserve">
<polygon style="fill:#FEA832;" points="385,325.6 403.599,434.599 355,472.4 256,420.2 157,472.4 108.401,434.599 127,325.6 
	47.401,248.8 72.001,188.8 176.201,173.8 229.3,65.4 282.7,65.4 335.799,173.8 439.999,188.8 464.599,248.8 "/>
<polygon style="fill:#FE8821;" points="385,325.6 403.599,434.599 355,472.4 256,420.2 256,65.4 282.7,65.4 335.799,173.8 
	439.999,188.8 464.599,248.8 "/>
<g>
	<path style="fill:#FEDB41;" d="M256,0c-24.901,0-45,20.099-45,45s20.099,45,45,45s45-20.099,45-45S280.901,0,256,0z"/>
	<path style="fill:#FEDB41;" d="M45,256c-24.814,0-45-20.186-45-45s20.186-45,45-45s45,20.186,45,45S69.814,256,45,256z"/>
	<path style="fill:#FEDB41;" d="M121,512c-24.814,0-45-20.186-45-45s20.186-45,45-45s45,20.186,45,45S145.814,512,121,512z"/>
</g>
<g>
	<path style="fill:#FCBF29;" d="M391,512c-24.814,0-45-20.186-45-45s20.186-45,45-45s45,20.186,45,45S415.814,512,391,512z"/>
	<path style="fill:#FCBF29;" d="M467,256c-24.814,0-45-20.186-45-45s20.186-45,45-45s45,20.186,45,45S491.814,256,467,256z"/>
</g>
<path style="fill:#FEDB41;" d="M256,211c-41.4,0-75,33.6-75,75s33.6,75,75,75s75-33.6,75-75S297.4,211,256,211z"/>
<g>
	<path style="fill:#FCBF29;" d="M256,90V0c24.901,0,45,20.099,45,45S280.901,90,256,90z"/>
	<path style="fill:#FCBF29;" d="M331,286c0,41.4-33.6,75-75,75V211C297.4,211,331,244.6,331,286z"/>
</g>
<g>
</g>
<g>
</g>
<g>
</g>
<g>
</g>
<g>
</g>
<g>
</g>
<g>
</g>
<g>
</g>
<g>
</g>
<g>
</g>
<g>
</g>
<g>
</g>
<g>
</g>
<g>
</g>
<g>
</g>
</svg>
