<?xml version="1.0" encoding="iso-8859-1"?>
<!-- Generator: Adobe Illustrator 19.0.0, SVG Export Plug-In . SVG Version: 6.00 Build 0)  -->
<svg version="1.1" id="Layer_1" xmlns="http://www.w3.org/2000/svg" xmlns:xlink="http://www.w3.org/1999/xlink" x="0px" y="0px"
	 viewBox="0 0 512 512" style="enable-background:new 0 0 512 512;" xml:space="preserve">
<circle style="fill:#00D2FF;" cx="256" cy="194.207" r="194.207"/>
<path style="fill:#00BEF0;" d="M353.103,344.276c-107.257,0-194.207-86.95-194.207-194.207c0-59.285,26.596-112.329,68.47-147.951
	C133.688,15.964,61.793,96.68,61.793,194.207c0,107.257,86.95,194.207,194.207,194.207c47.974,0,91.851-17.43,125.737-46.255
	C372.391,343.54,362.834,344.276,353.103,344.276z"/>
<path style="fill:#FFD4AA;" d="M185.379,273.655c-8.828,0-8.828-8.828-8.828-26.483s26.483-8.828,26.483-17.655
	s8.828-8.828,0-17.655c-8.828-8.828-79.448,0-88.276-17.655s26.483-26.483,26.483-44.138s-8.828-26.483-26.483-17.655
	c-13.273,6.637-21.556-16.659-28.601-32.384c-15.503,27.898-24.364,59.997-24.364,94.177c0,60.162,27.363,113.927,70.316,149.549
	c8.052-3.348,17.412-8.308,26.787-8.308c17.655,0,0-17.655,17.655-8.828c17.655,8.828,52.966,35.31,61.793,26.483
	c8.828-8.828,8.828-61.793,8.828-61.793s-8.828-8.828-17.655-17.655C220.69,264.828,194.207,273.655,185.379,273.655z"/>
<path style="fill:#E6BE96;" d="M201.397,271.253c-6.609,1.105-12.622,2.402-16.018,2.402c-8.828,0-8.828-8.828-8.828-26.483
	c0-4.137,1.486-6.782,3.712-8.579c-5.199-10.132-9.562-20.76-12.936-31.829c-22.334-1.03-47.527-2.472-52.569-12.557
	c-8.828-17.655,26.483-26.483,26.483-44.138s-8.828-26.483-26.483-17.655c-13.226,6.614-21.496-16.49-28.526-32.213
	c-0.008-0.04-0.038-0.118-0.076-0.215c-15.514,27.906-24.363,60.028-24.363,94.221c0,60.153,27.351,113.914,70.292,149.537
	c0.003,0.002,0.011,0.002,0.014,0.004c0.002,0.002,0.007,0.006,0.007,0.006c8.055-3.346,17.416-8.306,26.791-8.306
	c17.655,0,0-17.655,17.655-8.828c17.655,8.828,52.966,35.31,61.793,26.483c5.098-5.098,7.244-24.891,8.154-40.727
	C229.38,301.11,214.162,287.212,201.397,271.253z"/>
<path style="fill:#FFD4AA;" d="M269.687,0.533c-18.314,10.273-31.342,22.164-31.342,25.95c0,8.828,52.965,0,44.138,17.655
	S264.828,61.793,256,61.793c-8.828,0-44.138,79.448-44.138,88.276c0,8.828,61.793,8.828,61.793,0c0-8.828-8.828-26.483,0-35.31
	c8.828-8.828,44.138,26.483,52.966,35.31c8.828,8.828-26.483,17.655-26.483,35.31s35.31,8.828,52.966,0
	c17.655-8.828,35.31,52.966,44.138,61.793c6.326,6.326,35.242-14.497,51.166-26.836c1.151-8.552,1.8-17.262,1.8-26.13
	C450.207,91.556,370.55,7.563,269.687,0.533z"/>
<g>
	<path style="fill:#FFE1B4;" d="M269.687,0.533c-18.314,10.273-31.342,22.164-31.342,25.95c0,8.828,52.965,0,44.138,17.655
		S264.828,61.793,256,61.793c-3.02,0-9.156,9.383-15.902,21.973c28.003-6.879,59.932-1.556,68.867,13.337
		c26.483,44.138,61.793,17.655,79.448,26.483c15.791,7.895,8.828,70.621,26.483,79.448c8.985,4.493,20.409-6.872,34.966-15.934
		C446.26,87.73,368.194,7.4,269.687,0.533z"/>
	<path style="fill:#FFE1B4;" d="M264.828,185.379c-7.895-3.948-26.483,8.828-17.655,26.483c8.828,17.655,17.655,8.828,26.483,8.828
		c8.828,0,8.828-8.828,0-17.655C264.828,194.207,282.483,194.207,264.828,185.379z"/>
	<path style="fill:#FFE1B4;" d="M344.276,247.172c-8.828,0,0,26.483,0,35.31s-26.483,17.655-26.483,26.483
		s8.828,17.655,26.483,8.828c17.655-8.828,26.483,0,35.31-8.828c8.828-8.828-17.655-17.655-17.655-35.31
		C361.931,256,361.931,247.172,344.276,247.172z"/>
	<path style="fill:#FFE1B4;" d="M300.138,256c-6.242,6.242,8.828,26.483,17.655,17.655c8.828-8.828,8.828-26.483,0-26.483
		C308.966,247.172,308.966,247.172,300.138,256z"/>
</g>
<path style="fill:#00BEF0;" d="M141.241,229.517c-8.828,0-17.655,8.828-8.828,17.655c8.828,8.828,26.483,17.655,26.483,8.828
	C158.897,247.172,150.069,229.517,141.241,229.517z"/>
<path style="fill:#00D2FF;" d="M326.621,61.793c-8.828,8.828,26.483,17.655,26.483,26.483s17.655,26.483,26.483,17.655
	c8.828-8.828-8.828-17.655,0-26.483c8.828-8.828,0-26.483-8.828-26.483c-8.828,0,8.828,8.828-8.828,8.828
	S335.448,52.966,326.621,61.793z"/>
<path style="fill:#E6BE96;" d="M141.241,70.621c-12.484,0-26.483,17.655-8.828,17.655s26.483,0,26.483-8.828
	S150.069,70.621,141.241,70.621z"/>
<g>
	<circle style="fill:#FFE1B4;" cx="229.517" cy="61.793" r="8.828"/>
	<circle style="fill:#FFE1B4;" cx="388.414" cy="282.483" r="8.828"/>
</g>
<path style="fill:#C7CFE2;" d="M229.517,326.621c0,35.31-61.793,79.448-61.793,150.069l61.793,17.655V326.621z"/>
<polygon style="fill:#AEB5CA;" points="175.86,479.013 229.517,494.345 229.517,467.862 176.552,467.862 "/>
<path style="fill:#959CB3;" d="M176.552,494.345L176.552,494.345c-4.875,0-8.828-3.953-8.828-8.828v-17.655
	c0-4.875,3.953-8.828,8.828-8.828l0,0c4.875,0,8.828,3.953,8.828,8.828v17.655C185.379,490.392,181.427,494.345,176.552,494.345z"/>
<path style="fill:#C7CFE2;" d="M282.483,326.621c0,35.31,61.793,79.448,61.793,150.069l-61.793,17.655V326.621z"/>
<polygon style="fill:#AEB5CA;" points="336.14,479.013 282.483,494.345 282.483,467.862 335.448,467.862 "/>
<path style="fill:#959CB3;" d="M335.448,494.345L335.448,494.345c4.875,0,8.828-3.953,8.828-8.828v-17.655
	c0-4.875-3.953-8.828-8.828-8.828l0,0c-4.875,0-8.828,3.953-8.828,8.828v17.655C326.621,490.392,330.573,494.345,335.448,494.345z"
	/>
<path style="fill:#E4EAF6;" d="M256,238.345L256,238.345c-5.225,0-9.817,3.464-11.253,8.488l-12.173,42.606
	c-2.028,7.099-3.057,14.444-3.057,21.826v183.08h52.966v-183.08c0-7.382-1.028-14.728-3.057-21.826l-12.173-42.606
	C265.817,241.809,261.225,238.345,256,238.345z"/>
<path style="fill:#959CB3;" d="M256,238.345c-5.225,0-9.817,3.464-11.253,8.488L242.129,256h27.744l-2.62-9.167
	C265.817,241.809,261.225,238.345,256,238.345z"/>
<path style="fill:#C7CFE2;" d="M264.828,332.556h-20.09c-4.875,0-8.828-3.953-8.828-8.828v-14.763h37.746v14.763
	C273.655,328.605,269.703,332.556,264.828,332.556z"/>
<path style="fill:#464655;" d="M235.91,308.811v6.894c0,2.606,2.112,4.718,4.718,4.718h28.309c2.605,0,4.718-2.112,4.718-4.718
	v-6.894c0-1.587-0.762-3.127-2.116-3.955c-10.274-6.291-23.24-6.291-33.514,0C236.672,305.685,235.91,307.224,235.91,308.811z"/>
<path style="fill:#959CB3;" d="M256,397.241L256,397.241c-4.875,0-8.828,3.953-8.828,8.828v97.103c0,4.875,3.953,8.828,8.828,8.828
	l0,0c4.875,0,8.828-3.953,8.828-8.828v-97.103C264.828,401.194,260.875,397.241,256,397.241z"/>
<path style="fill:#464655;" d="M286.897,450.207L286.897,450.207c4.875,0,8.828-3.953,8.828-8.828v-17.655
	c0-4.875-3.953-8.828-8.828-8.828l0,0c-4.875,0-8.828,3.953-8.828,8.828v17.655C278.069,446.254,282.022,450.207,286.897,450.207z"
	/>
<path style="fill:#707487;" d="M278.069,512h17.655c2.438,0,4.414-1.976,4.414-4.414v-70.621c0-2.438-1.976-4.414-4.414-4.414
	h-17.655c-2.438,0-4.414,1.976-4.414,4.414v70.621C273.655,510.024,275.631,512,278.069,512z"/>
<g>
	<path style="fill:#464655;" d="M273.655,494.345v13.241c0,2.438,1.976,4.414,4.414,4.414h17.655c2.438,0,4.414-1.976,4.414-4.414
		v-13.241H273.655z"/>
	<path style="fill:#464655;" d="M225.103,450.207L225.103,450.207c4.875,0,8.828-3.953,8.828-8.828v-17.655
		c0-4.875-3.953-8.828-8.828-8.828l0,0c-4.875,0-8.828,3.953-8.828,8.828v17.655C216.276,446.254,220.228,450.207,225.103,450.207z"
		/>
</g>
<path style="fill:#707487;" d="M216.276,512h17.655c2.438,0,4.414-1.976,4.414-4.414v-70.621c0-2.438-1.976-4.414-4.414-4.414
	h-17.655c-2.438,0-4.414,1.976-4.414,4.414v70.621C211.862,510.024,213.838,512,216.276,512z"/>
<path style="fill:#464655;" d="M211.862,494.345v13.241c0,2.438,1.976,4.414,4.414,4.414h17.655c2.438,0,4.414-1.976,4.414-4.414
	v-13.241H211.862z"/>
<g>
</g>
<g>
</g>
<g>
</g>
<g>
</g>
<g>
</g>
<g>
</g>
<g>
</g>
<g>
</g>
<g>
</g>
<g>
</g>
<g>
</g>
<g>
</g>
<g>
</g>
<g>
</g>
<g>
</g>
</svg>
