<?xml version="1.0" encoding="iso-8859-1"?>
<!-- Generator: Adobe Illustrator 19.0.0, SVG Export Plug-In . SVG Version: 6.00 Build 0)  -->
<svg version="1.1" id="Capa_1" xmlns="http://www.w3.org/2000/svg" xmlns:xlink="http://www.w3.org/1999/xlink" x="0px" y="0px"
	 viewBox="0 0 512.001 512.001" style="enable-background:new 0 0 512.001 512.001;" xml:space="preserve">
<path style="fill:#7A6CF7;" d="M41.208,441.463c-4.744,8.119,2.071,18.104,11.361,16.644l49.956-7.85
	c5.235-0.823,10.326,2.152,12.179,7.117l17.688,47.375c3.289,8.809,15.334,9.844,20.078,1.725l100.066-169.22l-111.262-65.011
	L41.208,441.463z M470.794,441.463l-100.067-169.22l-111.262,65.011l100.067,169.22c4.744,8.119,16.789,7.084,20.078-1.725
	l17.688-47.375c1.854-4.964,6.944-7.939,12.18-7.117l49.956,7.85C468.722,459.566,475.537,449.581,470.794,441.463z"/>
<g>
	<path style="fill:#6959E2;" d="M420.264,356.014l-49.537-83.771l-111.262,65.011l70.884,119.871
		c13.264,4.012,27.544-2.025,33.873-14.414l35.916-70.299c2.749-5.38,7.125-9.756,12.505-12.505L420.264,356.014z"/>
	<path style="fill:#6959E2;" d="M141.275,272.242l-54.952,92.927c2.112,2.111,3.894,4.551,5.269,7.242l35.916,70.299
		c6.415,12.555,20.996,18.595,34.41,14.253l24.524-7.939l66.095-111.772L141.275,272.242z"/>
</g>
<path style="fill:#FFE92F;" d="M253.06,20.922L314.169,1.14c10.914-3.533,22.778,1.381,27.998,11.597l29.223,57.199
	c2.237,4.378,5.797,7.938,10.175,10.175l57.199,29.223c10.216,5.219,15.13,17.084,11.597,27.998l-19.782,61.109
	c-1.514,4.677-1.514,9.712,0,14.389l19.782,61.109c3.533,10.914-1.381,22.778-11.597,27.998l-57.199,29.223
	c-4.378,2.237-7.938,5.797-10.175,10.175l-29.223,57.199c-5.219,10.216-17.084,15.13-27.998,11.597l-61.109-19.782
	c-4.677-1.514-9.712-1.514-14.389,0l-61.109,19.782c-10.914,3.533-22.778-1.381-27.998-11.597l-29.223-57.199
	c-2.237-4.378-5.797-7.938-10.175-10.175l-57.199-29.223c-10.216-5.219-15.13-17.084-11.597-27.998l19.782-61.109
	c1.514-4.677,1.514-9.712,0-14.389l-19.781-61.11c-3.533-10.914,1.381-22.778,11.597-27.998l57.199-29.223
	c4.378-2.237,7.938-5.797,10.175-10.175l29.223-57.199c5.219-10.216,17.084-15.13,27.998-11.597l61.109,19.782
	C243.347,22.436,248.383,22.436,253.06,20.922z"/>
<path style="fill:#FFC600;" d="M251.631,57.607l48.972-15.853c8.746-2.831,18.254,1.107,22.437,9.294l23.419,45.839
	c1.792,3.508,4.646,6.362,8.154,8.154l45.839,23.419c8.187,4.183,12.125,13.691,9.294,22.437l-15.853,48.972
	c-1.213,3.748-1.213,7.783,0,11.531l15.853,48.972c2.831,8.746-1.107,18.254-9.294,22.437l-45.839,23.419
	c-3.508,1.792-6.362,4.646-8.154,8.154l-23.419,45.839c-4.183,8.187-13.691,12.125-22.437,9.294l-48.972-15.853
	c-3.748-1.213-7.783-1.213-11.531,0l-48.972,15.853c-8.746,2.831-18.254-1.107-22.437-9.294l-23.419-45.839
	c-1.792-3.508-4.646-6.362-8.154-8.154l-45.839-23.419c-8.187-4.183-12.125-13.691-9.294-22.437L97.838,211.4
	c1.213-3.748,1.213-7.783,0-11.531l-15.853-48.972c-2.831-8.746,1.107-18.254,9.294-22.437l45.839-23.419
	c3.508-1.792,6.362-4.646,8.154-8.154l23.419-45.839c4.183-8.187,13.691-12.125,22.437-9.294L240.1,57.607
	C243.848,58.82,247.883,58.82,251.631,57.607z"/>
<circle style="fill:#FF7B05;" cx="245.861" cy="205.631" r="142.08"/>
<circle style="fill:#FF9400;" cx="245.861" cy="205.631" r="115.17"/>
<path style="fill:#FFE92F;" d="M256.371,144.519l12.317,24.957c1.706,3.458,5.005,5.854,8.821,6.409l27.542,4.002
	c9.609,1.396,13.446,13.205,6.493,19.983l-19.93,19.427c-2.761,2.691-4.021,6.569-3.369,10.37l4.705,27.431
	c1.641,9.57-8.404,16.868-16.998,12.35l-24.635-12.951c-3.413-1.794-7.49-1.794-10.903,0l-24.635,12.951
	c-8.595,4.518-18.64-2.78-16.998-12.35l4.705-27.431c0.652-3.8-0.608-7.678-3.369-10.37l-19.93-19.427
	c-6.953-6.778-3.116-18.586,6.493-19.983l27.542-4.002c3.816-0.554,7.114-2.951,8.821-6.409l12.317-24.957
	C239.657,135.812,252.073,135.812,256.371,144.519z"/>
<path style="fill:#FFFF00;" d="M250.376,178.689l5.289,10.717c0.733,1.485,2.149,2.514,3.788,2.752l11.827,1.718
	c4.126,0.6,5.774,5.67,2.788,8.58l-8.558,8.342c-1.186,1.156-1.727,2.821-1.447,4.453l2.02,11.779
	c0.705,4.109-3.608,7.243-7.299,5.303l-10.578-5.561c-1.465-0.77-3.216-0.77-4.682,0l-10.578,5.561
	c-3.69,1.94-8.004-1.194-7.299-5.303l2.02-11.779c0.28-1.632-0.261-3.297-1.447-4.453l-8.558-8.342
	c-2.986-2.91-1.338-7.981,2.788-8.58l11.827-1.718c1.638-0.238,3.055-1.267,3.788-2.752l5.289-10.717
	C243.199,174.95,248.531,174.95,250.376,178.689z"/>
<g>
</g>
<g>
</g>
<g>
</g>
<g>
</g>
<g>
</g>
<g>
</g>
<g>
</g>
<g>
</g>
<g>
</g>
<g>
</g>
<g>
</g>
<g>
</g>
<g>
</g>
<g>
</g>
<g>
</g>
</svg>
