<?xml version="1.0" encoding="iso-8859-1"?>
<!-- Generator: Adobe Illustrator 19.0.0, SVG Export Plug-In . SVG Version: 6.00 Build 0)  -->
<svg version="1.1" id="Capa_1" xmlns="http://www.w3.org/2000/svg" xmlns:xlink="http://www.w3.org/1999/xlink" x="0px" y="0px"
	 viewBox="0 0 512 512" style="enable-background:new 0 0 512 512;" xml:space="preserve">
<rect x="226.228" y="373.064" style="fill:#4D4D4D;" width="59.544" height="19.848"/>
<g>
	<rect x="7.899" y="234.127" style="fill:#666666;" width="496.201" height="59.544"/>
	<polygon style="fill:#666666;" points="444.556,234.127 365.164,15.799 256,65.419 146.836,15.799 67.444,234.127 	"/>
</g>
<g>
	
		<rect x="30.723" y="174.609" transform="matrix(-0.3417 0.9398 -0.9398 -0.3417 228.8141 208.7912)" style="fill:#B3B3B3;" width="21.118" height="19.848"/>
	
		<rect x="-0.901" y="69.138" transform="matrix(-0.3417 0.9398 -0.9398 -0.3417 181.126 31.2534)" style="fill:#B3B3B3;" width="161.036" height="19.848"/>
</g>
<g>
	<path style="fill:#666666;" d="M146.836,462.38L146.836,462.38c-49.332,0-89.316-39.984-89.316-89.316v-29.772l178.632,9.924
		v19.848C236.152,422.386,196.168,462.38,146.836,462.38z"/>
	<path style="fill:#666666;" d="M365.164,462.38L365.164,462.38c49.332,0,89.316-39.984,89.316-89.316v-29.772l-178.632,9.924
		v19.848C275.848,422.386,315.832,462.38,365.164,462.38z"/>
</g>
<g>
	<path style="fill:#B3B3B3;" d="M189.588,505.291l-6.113-18.856c6.312-2.044,12.435-4.615,18.32-7.681l9.18,17.605
		C204.107,499.932,196.952,502.919,189.588,505.291z"/>
	<path style="fill:#B3B3B3;" d="M146.836,512C70.133,511.921,7.979,449.766,7.899,373.064h19.848
		c0.03,65.796,53.391,119.118,119.187,119.088c6.103,0,12.197-0.476,18.221-1.409l3.057,19.62
		C161.136,511.454,153.991,512,146.836,512z"/>
	<path style="fill:#B3B3B3;" d="M365.164,512c-7.155,0-14.301-0.546-21.376-1.637l3.057-19.62
		c65.022,10.093,125.906-34.436,135.999-99.459c0.933-6.024,1.409-12.117,1.409-18.22H504.1
		C504.021,449.756,441.867,511.921,365.164,512z"/>
</g>
<g>
	<path style="fill:#999999;" d="M178.483,350.01l-52.488-2.918l-38.227,92.869c12.653,11.194,28.244,18.548,44.926,21.198
		L178.483,350.01z"/>
	<path style="fill:#999999;" d="M402.637,346.17l-54.92,3.057l-38.456,93.435c13.139,10.589,29.018,17.218,45.789,19.104
		L402.637,346.17z"/>
</g>
<polygon style="fill:#FBB03B;" points="89.098,174.583 67.444,234.127 444.556,234.127 422.902,174.583 "/>
<g>
</g>
<g>
</g>
<g>
</g>
<g>
</g>
<g>
</g>
<g>
</g>
<g>
</g>
<g>
</g>
<g>
</g>
<g>
</g>
<g>
</g>
<g>
</g>
<g>
</g>
<g>
</g>
<g>
</g>
</svg>
