<?xml version="1.0" encoding="iso-8859-1"?>
<!-- Generator: Adobe Illustrator 19.0.0, SVG Export Plug-In . SVG Version: 6.00 Build 0)  -->
<svg version="1.1" id="Capa_1" xmlns="http://www.w3.org/2000/svg" xmlns:xlink="http://www.w3.org/1999/xlink" x="0px" y="0px"
	 viewBox="0 0 512 512" style="enable-background:new 0 0 512 512;" xml:space="preserve">
<path style="fill:#29ABE2;" d="M154.483,335.448h247.172l0,0v150.069c0,14.627-11.855,26.483-26.483,26.483l0,0H180.966
	c-14.627,0-26.483-11.855-26.483-26.483l0,0V335.448L154.483,335.448z"/>
<path style="fill:#E6E6E6;" d="M375.172,512H180.966c-14.627,0-26.483-11.855-26.483-26.483l0,0v-44.138h247.172v44.138
	C401.655,500.145,389.8,512,375.172,512L375.172,512z"/>
<g>
	<rect x="189.793" y="361.931" style="fill:#0071BC;" width="17.655" height="17.655"/>
	<rect x="225.103" y="361.931" style="fill:#0071BC;" width="141.241" height="17.655"/>
	<rect x="189.793" y="397.241" style="fill:#0071BC;" width="176.552" height="17.655"/>
</g>
<g>
	<rect x="428.138" y="370.759" style="fill:#B3B3B3;" width="17.655" height="88.276"/>
	<rect x="428.138" y="476.69" style="fill:#B3B3B3;" width="17.655" height="17.655"/>
</g>
<rect x="110.345" style="fill:#808080;" width="335.448" height="335.448"/>
<g>
	<rect x="66.207" y="97.103" style="fill:#B3B3B3;" width="17.655" height="194.207"/>
	<rect x="66.207" y="61.793" style="fill:#B3B3B3;" width="17.655" height="17.655"/>
</g>
<g>
	<path style="fill:#FFFFFF;" d="M245.23,253.352l-10.929-13.859c27.692-21.698,43.847-54.952,43.767-90.138v-34.595h17.655v34.595
		C295.821,189.952,277.186,228.317,245.23,253.352z"/>
	<path style="fill:#FFFFFF;" d="M210.6,273.081l-6.303-16.508c5.667-2.163,11.14-4.767,16.393-7.804l8.828,15.272
		C223.462,267.555,217.132,270.574,210.6,273.081z"/>
	<path style="fill:#FFFFFF;" d="M327.115,269.347l-14.23-10.452c23.358-31.735,35.911-70.135,35.805-109.542v-8.113h17.655v8.113
		C366.46,192.521,352.706,234.584,327.115,269.347z"/>
	<path style="fill:#FFFFFF;" d="M366.345,123.586H348.69c0.009-34.127-27.657-61.793-61.784-61.802
		c-10.47,0-20.762,2.657-29.926,7.724l-8.58-15.431c38.382-21.266,86.731-7.38,107.997,31.002
		C362.92,96.865,366.345,110.115,366.345,123.586z"/>
	<path style="fill:#FFFFFF;" d="M196.202,201.684l-9.41-14.954c12.879-8.051,20.692-22.184,20.657-37.376v-25.768
		c-0.009-19.35,7.053-38.038,19.862-52.551l13.241,11.67c-9.958,11.29-15.448,25.83-15.448,40.881v25.768
		C225.165,170.62,214.237,190.411,196.202,201.684z"/>
	<path style="fill:#FFFFFF;" d="M192.441,242.017l-5.297-16.843c33.174-10.328,55.729-41.075,55.614-75.82h17.655
		C260.555,191.815,232.986,229.402,192.441,242.017z"/>
	<path style="fill:#FFFFFF;" d="M324.476,195.972l-16.967-4.891c3.911-13.568,5.879-27.613,5.87-41.728v-25.768
		c0-14.627-11.855-26.483-26.483-26.483c-14.627,0-26.483,11.855-26.483,26.483v8.113h-17.655v-8.113
		c0-24.373,19.765-44.138,44.138-44.138c24.373,0,44.138,19.765,44.138,44.138v25.768
		C331.052,165.12,328.836,180.815,324.476,195.972z"/>
	<path style="fill:#FFFFFF;" d="M279.322,270.495l-12.217-12.729c14.813-14.133,26.553-31.161,34.507-50.026l16.26,6.886
		C308.974,235.688,295.857,254.702,279.322,270.495z"/>
</g>
<g>
	<path style="fill:#666666;" d="M154.483,88.276h-17.655V35.31c0-4.873,3.955-8.828,8.828-8.828h52.966v17.655h-44.138V88.276z"/>
	<path style="fill:#666666;" d="M419.31,88.276h-17.655V44.138h-44.138V26.483h52.966c4.873,0,8.828,3.955,8.828,8.828V88.276z"/>
	<path style="fill:#666666;" d="M410.483,308.966h-52.966V291.31h44.138v-44.138h17.655v52.966
		C419.31,305.011,415.356,308.966,410.483,308.966z"/>
	<path style="fill:#666666;" d="M198.621,308.966h-52.966c-4.873,0-8.828-3.955-8.828-8.828v-52.966h17.655v44.138h44.138V308.966z"
		/>
</g>
<rect x="269.241" y="467.862" style="fill:#999999;" width="17.655" height="17.655"/>
<g>
</g>
<g>
</g>
<g>
</g>
<g>
</g>
<g>
</g>
<g>
</g>
<g>
</g>
<g>
</g>
<g>
</g>
<g>
</g>
<g>
</g>
<g>
</g>
<g>
</g>
<g>
</g>
<g>
</g>
</svg>
