<?xml version="1.0" encoding="iso-8859-1"?>
<!-- Generator: Adobe Illustrator 19.0.0, SVG Export Plug-In . SVG Version: 6.00 Build 0)  -->
<svg version="1.1" id="Capa_1" xmlns="http://www.w3.org/2000/svg" xmlns:xlink="http://www.w3.org/1999/xlink" x="0px" y="0px"
	 viewBox="0 0 512.005 512.005" style="enable-background:new 0 0 512.005 512.005;" xml:space="preserve">
<rect x="157.149" y="-82.898" transform="matrix(5.999999e-004 -1 1 5.999999e-004 141.8738 369.9821)" style="fill:#61D7A8;" width="197.78" height="393.82"/>
<polygon style="fill:#00AB94;" points="453.007,15.243 255.828,15.125 255.828,212.901 452.889,213.018 "/>
<path style="fill:#005357;" d="M512.003,146.832l-44.182-0.026L468.01,0.254L44.204,0l-0.087,146.552l-44.08-0.026l-0.034,55.156
	l44.068,20.637l-0.086,143.585l423.553,0.253l0.185-143.513l44.247-20.657L512.003,146.832z M437.903,198.14l-22.817-0.014
	l-49.922-21.029l-220.562-0.132l-49.953,20.97l-20.574-0.012l0.1-167.907l363.828,0.217L437.903,198.14z"/>
<g>
	
		<rect x="50.881" y="406.038" transform="matrix(-5.999999e-004 1 -1 -5.999999e-004 562.5872 368.7968)" style="fill:#A5C7E0;" width="92.25" height="118.97"/>
	
		<rect x="368.057" y="406.299" transform="matrix(-5.999999e-004 1 -1 -5.999999e-004 880.2751 51.8219)" style="fill:#A5C7E0;" width="92.37" height="118.97"/>
</g>
<polygon style="fill:#FFE87C;" points="43.991,362.536 43.991,291.08 165.15,291.08 182.274,362.536 "/>
<rect x="368.057" y="406.299" transform="matrix(-5.999999e-004 1 -1 -5.999999e-004 880.2751 51.8219)" style="fill:#7BB6E0;" width="92.37" height="118.97"/>
<polygon style="fill:#FFE87C;" points="43.991,362.536 43.991,291.08 165.15,291.08 182.274,362.536 "/>
<polygon style="fill:#004244;" points="467.821,146.805 468.01,0.253 255.828,0.126 255.828,30.124 438.003,30.233 437.903,198.14 
	415.086,198.127 365.164,177.097 255.828,177.032 255.828,366.032 467.539,366.158 467.724,222.645 511.97,201.988 512.003,146.832 
	"/>
<polygon style="fill:#FFE87C;" points="467.66,363.5 328.913,362.459 346.037,291.003 467.66,291.003 "/>
<polygon style="fill:#FFD500;" points="467.66,363.5 328.913,362.459 346.037,291.003 467.66,291.003 "/>
<path style="fill:#004244;" d="M473.006,351.033H38.65c-13.558,0-24.588,11.033-24.588,24.595v55.399h483.531v-55.399
	C497.593,362.066,486.563,351.033,473.006,351.033z"/>
<path style="fill:#002C3C;" d="M497.593,375.628c0-13.562-11.03-24.595-24.588-24.595H255.828v79.994h241.765V375.628z"/>
<g>
	<rect x="240.843" y="177.07" style="fill:#004244;" width="29.989" height="107.1"/>
	<rect x="300.823" y="177.11" style="fill:#004244;" width="29.989" height="89.95"/>
	<rect x="180.863" y="177.04" style="fill:#004244;" width="29.989" height="89.95"/>
</g>
<g>
	<polygon style="fill:#002C3C;" points="270.86,177.083 255.828,177.074 255.828,284.17 270.797,284.179 	"/>
	<rect x="300.823" y="177.11" style="fill:#002C3C;" width="29.989" height="89.95"/>
</g>
<g>
</g>
<g>
</g>
<g>
</g>
<g>
</g>
<g>
</g>
<g>
</g>
<g>
</g>
<g>
</g>
<g>
</g>
<g>
</g>
<g>
</g>
<g>
</g>
<g>
</g>
<g>
</g>
<g>
</g>
</svg>
