<?xml version="1.0" encoding="iso-8859-1"?>
<!-- Generator: Adobe Illustrator 19.0.0, SVG Export Plug-In . SVG Version: 6.00 Build 0)  -->
<svg version="1.1" id="Layer_1" xmlns="http://www.w3.org/2000/svg" xmlns:xlink="http://www.w3.org/1999/xlink" x="0px" y="0px"
	 viewBox="0 0 512 512" style="enable-background:new 0 0 512 512;" xml:space="preserve">
<path style="fill:#E4EAF6;" d="M256,114.759c-109.763,0-205.09,49.892-253.241,123.145c-3.678,5.594-3.678,12.942,0,18.538
	C50.91,329.694,146.237,379.586,256,379.586s205.09-49.892,253.241-123.145c3.678-5.594,3.678-12.942,0-18.538
	C461.09,164.651,365.763,114.759,256,114.759z"/>
<circle style="fill:#00B9BE;" cx="256" cy="247.172" r="132.414"/>
<circle style="fill:#00D2D7;" cx="256" cy="247.172" r="114.759"/>
<circle style="fill:#00E6EB;" cx="256" cy="247.172" r="79.448"/>
<circle style="fill:#464655;" cx="256" cy="247.172" r="52.966"/>
<g>
	<circle style="fill:#FFFFFF;" cx="282.483" cy="220.69" r="17.655"/>
	<circle style="fill:#FFFFFF;" cx="326.621" cy="176.552" r="26.483"/>
</g>
<g>
	<path style="fill:#00E6EB;" d="M240.897,414.185c-0.276,0-0.552-0.013-0.836-0.039c-6.155-0.577-12.353-1.513-18.414-2.776
		c-4.776-0.995-7.837-5.673-6.836-10.444c0.983-4.771,5.594-7.849,10.44-6.84c5.414,1.129,10.957,1.965,16.466,2.483
		c4.853,0.457,8.414,4.762,7.966,9.617C249.25,410.759,245.397,414.185,240.897,414.185z M276.095,413.638
		c-4.388,0-8.181-3.258-8.75-7.72c-0.612-4.836,2.81-9.255,7.647-9.866c5.517-0.698,11.034-1.707,16.388-3.005
		c4.75-1.142,9.517,1.768,10.655,6.508c1.146,4.737-1.768,9.508-6.5,10.655c-5.992,1.449-12.156,2.578-18.319,3.358
		C276.836,413.617,276.466,413.638,276.095,413.638z M189.949,400.574c-1.224,0-2.474-0.258-3.663-0.806
		c-5.594-2.556-11.138-5.479-16.474-8.676c-4.181-2.508-5.543-7.932-3.034-12.113s7.932-5.539,12.104-3.034
		c4.785,2.867,9.75,5.483,14.75,7.772c4.431,2.026,6.379,7.263,4.353,11.699C196.5,398.655,193.302,400.574,189.949,400.574z
		 M326.569,398.41c-3.25,0-6.379-1.798-7.914-4.905c-2.173-4.366-0.388-9.664,3.982-11.832c4.957-2.457,9.827-5.219,14.474-8.22
		c4.12-2.634,9.569-1.452,12.207,2.643c2.638,4.099,1.457,9.56-2.638,12.203c-5.207,3.349-10.655,6.444-16.199,9.194
		C329.224,398.116,327.887,398.41,326.569,398.41z M146.327,370.983c-2.189,0-4.38-0.81-6.094-2.44
		c-4.491-4.285-8.776-8.85-12.742-13.574c-3.138-3.737-2.655-9.302,1.086-12.439c3.75-3.138,9.311-2.634,12.431,1.086
		c3.552,4.228,7.388,8.314,11.414,12.151c3.526,3.362,3.656,8.952,0.294,12.479C150.983,370.065,148.655,370.983,146.327,370.983z
		 M369.216,367.478c-2.232,0-4.474-0.845-6.189-2.539c-3.474-3.418-3.518-9.009-0.104-12.483c3.896-3.948,7.604-8.16,11.034-12.509
		c3.017-3.828,8.569-4.479,12.396-1.465c3.828,3.017,4.483,8.569,1.465,12.396c-3.828,4.857-7.975,9.556-12.31,13.965
		C373.775,366.599,371.5,367.478,369.216,367.478z M114.733,328.806c-3.198,0-6.284-1.741-7.853-4.776
		c-2.81-5.449-5.37-11.164-7.612-16.991c-1.75-4.552,0.526-9.655,5.078-11.405c4.552-1.754,9.655,0.517,11.405,5.078
		c2.008,5.219,4.301,10.34,6.819,15.215c2.232,4.332,0.534,9.655-3.794,11.896C117.483,328.491,116.095,328.806,114.733,328.806z
		 M399.482,324.314c-1.276,0-2.569-0.276-3.801-0.862c-4.396-2.103-6.259-7.375-4.156-11.772c2.397-5.009,4.518-10.189,6.319-15.401
		c1.603-4.604,6.655-7.043,11.224-5.461c4.612,1.594,7.06,6.621,5.465,11.229c-2.017,5.836-4.396,11.642-7.078,17.246
		C405.94,322.465,402.776,324.314,399.482,324.314z M98.69,278.599c-4.328,0-8.104-3.181-8.733-7.586
		c-0.862-6.078-1.397-12.31-1.594-18.53c-0.163-4.871,3.663-8.948,8.534-9.103c4.974-0.314,8.957,3.668,9.103,8.543
		c0.181,5.578,0.664,11.164,1.44,16.608c0.681,4.828-2.673,9.293-7.5,9.983C99.518,278.573,99.104,278.599,98.69,278.599z
		 M413.94,273.612c-0.319,0-0.647-0.018-0.974-0.052c-4.845-0.534-8.345-4.897-7.81-9.741c0.604-5.492,0.914-11.091,0.914-16.647
		c0-4.875,3.948-8.828,8.828-8.828c4.879,0,8.828,3.953,8.828,8.828c0,6.198-0.345,12.448-1.017,18.578
		C422.207,270.268,418.379,273.612,413.94,273.612z M412.509,228.414c-4.215,0-7.939-3.021-8.69-7.315
		c-0.948-5.431-2.216-10.883-3.776-16.207c-1.379-4.676,1.302-9.582,5.974-10.957c4.759-1.384,9.587,1.311,10.957,5.983
		c1.759,5.956,3.181,12.065,4.242,18.155c0.836,4.802-2.379,9.375-7.181,10.211C413.517,228.371,413.009,228.414,412.509,228.414z
		 M99.957,225.913c-0.552,0-1.103-0.052-1.664-0.156c-4.793-0.918-7.932-5.539-7.017-10.327c1.173-6.121,2.69-12.207,4.534-18.087
		c1.44-4.66,6.422-7.245,11.052-5.798c4.655,1.452,7.25,6.406,5.793,11.057c-1.63,5.246-2.991,10.677-4.034,16.138
		C107.81,222.969,104.113,225.913,99.957,225.913z M394.897,178.745c-3.095,0-6.094-1.63-7.715-4.522
		c-2.716-4.853-5.716-9.594-8.914-14.091c-2.828-3.97-1.906-9.483,2.069-12.31c3.975-2.831,9.483-1.897,12.31,2.069
		c3.577,5.017,6.922,10.306,9.949,15.72c2.379,4.254,0.853,9.633-3.396,12.013C397.836,178.383,396.353,178.745,394.897,178.745z
		 M118.37,176.526c-1.5,0-3.026-0.384-4.414-1.19c-4.215-2.44-5.664-7.84-3.215-12.061c3.095-5.345,6.526-10.582,10.207-15.573
		c2.897-3.932,8.423-4.762,12.345-1.866c3.923,2.892,4.759,8.418,1.863,12.341c-3.293,4.47-6.37,9.164-9.138,13.944
		C124.38,174.948,121.422,176.526,118.37,176.526z M361.965,137.587c-2.094,0-4.199-0.742-5.879-2.246
		c-4.156-3.711-8.534-7.215-13.026-10.422c-3.966-2.836-4.888-8.349-2.051-12.314c2.819-3.966,8.353-4.879,12.31-2.056
		c5.017,3.582,9.906,7.496,14.526,11.629c3.638,3.25,3.948,8.832,0.698,12.466C366.802,136.59,364.388,137.587,361.965,137.587z
		 M151.957,135.896c-2.465,0-4.922-1.031-6.673-3.043c-3.19-3.686-2.793-9.259,0.888-12.452c4.681-4.061,9.638-7.896,14.724-11.401
		c4.018-2.772,9.517-1.754,12.276,2.259c2.767,4.013,1.759,9.508-2.259,12.276c-4.552,3.138-8.983,6.569-13.173,10.202
		C156.07,135.186,154.008,135.896,151.957,135.896z M317.405,109.405c-1.138,0-2.302-0.224-3.414-0.69
		c-5.103-2.142-10.388-4.018-15.699-5.574c-4.681-1.366-7.362-6.272-5.992-10.953c1.37-4.676,6.276-7.367,10.957-5.987
		c5.94,1.737,11.844,3.837,17.56,6.229c4.5,1.888,6.612,7.06,4.724,11.556C324.129,107.367,320.853,109.405,317.405,109.405z
		 M196.931,108.448c-3.5,0-6.81-2.099-8.19-5.547c-1.818-4.526,0.38-9.664,4.905-11.478c5.75-2.306,11.699-4.306,17.664-5.953
		c4.672-1.302,9.551,1.47,10.854,6.168c1.293,4.703-1.465,9.56-6.164,10.858c-5.336,1.465-10.646,3.254-15.785,5.314
		C199.138,108.242,198.026,108.448,196.931,108.448z M266.094,97.418c-0.181,0-0.371-0.004-0.552-0.018
		c-5.517-0.341-11.129-0.392-16.698-0.129c-4.819,0.129-8.991-3.539-9.224-8.409c-0.224-4.871,3.543-9,8.414-9.228
		c6.155-0.285,12.439-0.242,18.595,0.147c4.871,0.301,8.569,4.491,8.267,9.357C274.603,93.815,270.724,97.418,266.094,97.418z"/>
	<path style="fill:#00E6EB;" d="M167.724,26.483H61.793c-4.879,0-8.828-3.953-8.828-8.828s3.948-8.828,8.828-8.828h105.931
		c4.879,0,8.828,3.953,8.828,8.828S172.604,26.483,167.724,26.483z"/>
	<path style="fill:#00E6EB;" d="M123.586,61.793H61.793c-4.879,0-8.828-3.953-8.828-8.828s3.948-8.828,8.828-8.828h61.793
		c4.879,0,8.828,3.953,8.828,8.828S128.466,61.793,123.586,61.793z"/>
</g>
<g>
	<path style="fill:#00D2D7;" d="M26.483,61.793H8.828C3.948,61.793,0,57.841,0,52.966s3.948-8.828,8.828-8.828h17.655
		c4.879,0,8.828,3.953,8.828,8.828S31.362,61.793,26.483,61.793z"/>
	<path style="fill:#00D2D7;" d="M26.483,26.483H8.828C3.948,26.483,0,22.53,0,17.655s3.948-8.828,8.828-8.828h17.655
		c4.879,0,8.828,3.953,8.828,8.828S31.362,26.483,26.483,26.483z"/>
</g>
<path style="fill:#00E6EB;" d="M503.172,26.483h-79.448c-4.879,0-8.828-3.953-8.828-8.828s3.948-8.828,8.828-8.828h79.448
	c4.879,0,8.828,3.953,8.828,8.828S508.052,26.483,503.172,26.483z"/>
<g>
	<path style="fill:#00D2D7;" d="M388.414,26.483h-17.655c-4.879,0-8.828-3.953-8.828-8.828s3.948-8.828,8.828-8.828h17.655
		c4.879,0,8.828,3.953,8.828,8.828S393.293,26.483,388.414,26.483z"/>
	<path style="fill:#00D2D7;" d="M26.483,97.103H8.828C3.948,97.103,0,93.151,0,88.276c0-4.875,3.948-8.828,8.828-8.828h17.655
		c4.879,0,8.828,3.953,8.828,8.828C35.31,93.151,31.362,97.103,26.483,97.103z"/>
</g>
<g>
	<path style="fill:#00E6EB;" d="M123.586,97.103H61.793c-4.879,0-8.828-3.953-8.828-8.828c0-4.875,3.948-8.828,8.828-8.828h61.793
		c4.879,0,8.828,3.953,8.828,8.828C132.414,93.151,128.466,97.103,123.586,97.103z"/>
	<path style="fill:#00E6EB;" d="M335.448,467.862H220.69c-4.879,0-8.828-3.953-8.828-8.828s3.948-8.828,8.828-8.828h114.759
		c4.879,0,8.828,3.953,8.828,8.828S340.328,467.862,335.448,467.862z"/>
	<path style="fill:#00E6EB;" d="M291.31,503.172H220.69c-4.879,0-8.828-3.953-8.828-8.828s3.948-8.828,8.828-8.828h70.621
		c4.879,0,8.828,3.953,8.828,8.828S296.19,503.172,291.31,503.172z"/>
	<path style="fill:#00E6EB;" d="M467.862,503.172h-17.655c-4.879,0-8.828-3.953-8.828-8.828s3.948-8.828,8.828-8.828h17.655
		c4.879,0,8.828,3.953,8.828,8.828S472.742,503.172,467.862,503.172z"/>
	<path style="fill:#00E6EB;" d="M467.862,467.862h-17.655c-4.879,0-8.828-3.953-8.828-8.828s3.948-8.828,8.828-8.828h17.655
		c4.879,0,8.828,3.953,8.828,8.828S472.742,467.862,467.862,467.862z"/>
	<path style="fill:#00E6EB;" d="M485.517,432.552h-35.31c-4.879,0-8.828-3.953-8.828-8.828c0-4.875,3.948-8.828,8.828-8.828h35.31
		c4.879,0,8.828,3.953,8.828,8.828C494.345,428.599,490.397,432.552,485.517,432.552z"/>
	<path style="fill:#00E6EB;" d="M485.517,397.241h-35.31c-4.879,0-8.828-3.953-8.828-8.828s3.948-8.828,8.828-8.828h35.31
		c4.879,0,8.828,3.953,8.828,8.828S490.397,397.241,485.517,397.241z"/>
	<path style="fill:#00E6EB;" d="M317.793,105.931c-2.259,0-4.517-0.862-6.241-2.586c-3.448-3.448-3.448-9.035,0-12.483
		l44.138-44.138c1.655-1.655,3.896-2.586,6.241-2.586h141.241c4.879,0,8.828,3.953,8.828,8.828s-3.948,8.828-8.828,8.828H365.587
		l-41.551,41.551C322.311,105.069,320.052,105.931,317.793,105.931z"/>
	<path style="fill:#00E6EB;" d="M147.482,355.69c-3.448-3.448-9.035-3.448-12.483,0l-21.11,21.11
		c-11.962-9.307-26.974-14.869-43.268-14.869C31.681,361.931,0,393.612,0,432.552s31.681,70.621,70.621,70.621
		s70.621-31.681,70.621-70.621c0-16.295-5.562-31.306-14.869-43.27l21.11-21.11C150.931,364.724,150.931,359.138,147.482,355.69z
		 M105.667,423.724c-0.76-13.086-3.212-25.8-7.299-36.265c12.729,7.862,21.888,20.958,24.468,36.265H105.667z M70.621,485.517
		c-5.645,0-15.574-16.543-17.372-44.138h34.743C86.195,468.974,76.266,485.517,70.621,485.517z M53.249,423.724
		c1.798-27.595,11.726-44.138,17.372-44.138s15.574,16.543,17.372,44.138H53.249z M42.872,387.459
		c-4.086,10.465-6.538,23.179-7.299,36.265h-17.17C20.984,408.417,30.143,395.321,42.872,387.459z M18.404,441.379h17.17
		c0.76,13.086,3.212,25.8,7.299,36.265C30.143,469.782,20.984,456.686,18.404,441.379z M98.369,477.644
		c4.086-10.465,6.538-23.179,7.299-36.265h17.17C120.257,456.686,111.098,469.782,98.369,477.644z"/>
</g>
<g>
	<path style="fill:#00D2D7;" d="M185.379,467.862h-17.655c-4.879,0-8.828-3.953-8.828-8.828s3.948-8.828,8.828-8.828h17.655
		c4.879,0,8.828,3.953,8.828,8.828S190.259,467.862,185.379,467.862z"/>
	<path style="fill:#00D2D7;" d="M185.379,503.172h-17.655c-4.879,0-8.828-3.953-8.828-8.828s3.948-8.828,8.828-8.828h17.655
		c4.879,0,8.828,3.953,8.828,8.828S190.259,503.172,185.379,503.172z"/>
	<path style="fill:#00D2D7;" d="M414.983,397.241c-4.879,0-8.871-3.953-8.871-8.828s3.905-8.828,8.785-8.828h0.086
		c4.879,0,8.828,3.953,8.828,8.828S419.862,397.241,414.983,397.241z"/>
	<path style="fill:#00D2D7;" d="M414.983,467.862c-4.879,0-8.871-3.953-8.871-8.828s3.905-8.828,8.785-8.828h0.086
		c4.879,0,8.828,3.953,8.828,8.828S419.862,467.862,414.983,467.862z"/>
	<path style="fill:#00D2D7;" d="M414.983,432.552c-4.879,0-8.871-3.953-8.871-8.828c0-4.875,3.905-8.828,8.785-8.828h0.086
		c4.879,0,8.828,3.953,8.828,8.828C423.81,428.599,419.862,432.552,414.983,432.552z"/>
	<path style="fill:#00D2D7;" d="M414.983,503.172c-4.879,0-8.871-3.953-8.871-8.828s3.905-8.828,8.785-8.828h0.086
		c4.879,0,8.828,3.953,8.828,8.828S419.862,503.172,414.983,503.172z"/>
</g>
<g>
</g>
<g>
</g>
<g>
</g>
<g>
</g>
<g>
</g>
<g>
</g>
<g>
</g>
<g>
</g>
<g>
</g>
<g>
</g>
<g>
</g>
<g>
</g>
<g>
</g>
<g>
</g>
<g>
</g>
</svg>
