<?xml version="1.0" encoding="iso-8859-1"?>
<!-- Generator: Adobe Illustrator 19.0.0, SVG Export Plug-In . SVG Version: 6.00 Build 0)  -->
<svg version="1.1" id="Capa_1" xmlns="http://www.w3.org/2000/svg" xmlns:xlink="http://www.w3.org/1999/xlink" x="0px" y="0px"
	 viewBox="0 0 512 512" style="enable-background:new 0 0 512 512;" xml:space="preserve">
<path style="fill:#FF3636;" d="M256,0C115.3,0,0,115.3,0,256s115.3,256,256,256s256-115.3,256-256S396.7,0,256,0z"/>
<path style="fill:#F40000;" d="M512,256c0,140.7-115.3,256-256,256V0C396.7,0,512,115.3,512,256z"/>
<path style="fill:#DEECF1;" d="M421,256l29.099,15C442.899,366.4,366.4,442.899,271,450.099L256,421l-15,29.099
	C145.6,442.899,69.101,366.4,61.901,271L91,256l-29.099-15C69.101,145.6,145.6,69.101,241,61.901L256,91l15-29.099
	C366.4,69.101,442.899,145.6,450.099,241L421,256z"/>
<path style="fill:#C6E2E7;" d="M421,256l29.099,15C442.899,366.4,366.4,442.899,271,450.099L256,421V91l15-29.099
	C366.4,69.101,442.899,145.6,450.099,241L421,256z"/>
<rect x="241" y="151" style="fill:#005285;" width="30" height="75"/>
<rect x="262.964" y="296.602" transform="matrix(-0.7071 -0.7071 0.7071 -0.7071 311.6063 752.2729)" style="fill:#003E67;" width="97.279" height="29.997"/>
<g>
	<path style="fill:#005285;" d="M271,61.901V121h-30V61.901C246.099,61.3,250.901,61,256,61S265.901,61.3,271,61.901z"/>
	<path style="fill:#005285;" d="M271,391v59.099c-5.099,0.601-9.901,0.901-15,0.901s-9.901-0.3-15-0.901V391H271z"/>
	<path style="fill:#005285;" d="M121,241H61.76c-0.381,4.968-0.76,9.937-0.76,15c0,5.063,0.379,10.032,0.76,15H121V241z"/>
</g>
<g>
	<path style="fill:#003E67;" d="M450.24,241H391v30h59.24c0.381-4.968,0.76-9.937,0.76-15S450.621,245.968,450.24,241z"/>
	<path style="fill:#003E67;" d="M271,121h-15V61c5.099,0,9.901,0.3,15,0.901V121z"/>
	<path style="fill:#003E67;" d="M256,391h15v59.099c-5.099,0.601-9.901,0.901-15,0.901V391z"/>
	<rect x="256" y="151" style="fill:#003E67;" width="15" height="75"/>
</g>
<path style="fill:#0065A3;" d="M256,211c-24.901,0-45,20.099-45,45s20.099,45,45,45s45-20.099,45-45S280.901,211,256,211z"/>
<path style="fill:#005285;" d="M301,256c0,24.901-20.099,45-45,45v-90C280.901,211,301,231.099,301,256z"/>
<g>
</g>
<g>
</g>
<g>
</g>
<g>
</g>
<g>
</g>
<g>
</g>
<g>
</g>
<g>
</g>
<g>
</g>
<g>
</g>
<g>
</g>
<g>
</g>
<g>
</g>
<g>
</g>
<g>
</g>
</svg>
