<?xml version="1.0" encoding="iso-8859-1"?>
<!-- Generator: Adobe Illustrator 19.0.0, SVG Export Plug-In . SVG Version: 6.00 Build 0)  -->
<svg version="1.1" id="Capa_1" xmlns="http://www.w3.org/2000/svg" xmlns:xlink="http://www.w3.org/1999/xlink" x="0px" y="0px"
	 viewBox="0 0 512 512" style="enable-background:new 0 0 512 512;" xml:space="preserve">
<path style="fill:#00ABE9;" d="M256,0C115.3,0,0,115.3,0,256s115.3,256,256,256s256-115.3,256-256S396.7,0,256,0z"/>
<path style="fill:#1A96E2;" d="M512,256c0,140.7-115.3,256-256,256V0C396.7,0,512,115.3,512,256z"/>
<path style="fill:#96FFF6;" d="M256,30C131.8,30,30,131.8,30,256s101.8,226,226,226s226-101.8,226-226S380.2,30,256,30z"/>
<path style="fill:#3DD1D1;" d="M482,256c0,124.2-101.8,226-226,226V30C380.2,30,482,131.8,482,256z"/>
<g>
	<path style="fill:#00ABE9;" d="M414.101,138.699C366.099,106.599,311.201,90.7,256,90.7s-110.099,15.899-158.101,47.999L85.3,147.1
		l50.099,75l12.301-8.401C180.099,192.1,218.2,181.3,256,181.3s75.901,10.8,108.3,32.399l12.301,8.401l50.099-75L414.101,138.699z"
		/>
	<path style="fill:#00ABE9;" d="M347.5,238.599C319.6,220,287.8,211,256,211s-63.6,9-91.5,27.599L151.901,247L202,322l12.299-8.401
		C226.601,305.2,241.3,301.3,256,301.3c14.7,0,29.399,3.9,41.7,12.299L310,322l50.099-75L347.5,238.599z"/>
	<path style="fill:#00ABE9;" d="M256,331c-24.901,0-45,20.099-45,45c0,24.899,20.099,45,45,45s45-20.101,45-45
		C301,351.099,280.901,331,256,331z"/>
</g>
<g>
	<path style="fill:#1A96E2;" d="M301,376c0,24.899-20.099,45-45,45v-90C280.901,331,301,351.099,301,376z"/>
	<path style="fill:#1A96E2;" d="M347.5,238.599L360.099,247L310,322l-12.299-8.401C285.399,305.2,270.7,301.3,256,301.3V211
		C287.8,211,319.6,220,347.5,238.599z"/>
	<path style="fill:#1A96E2;" d="M426.7,147.1l-50.099,75l-12.301-8.401C331.901,192.1,293.8,181.3,256,181.3V90.7
		c55.201,0,110.099,15.899,158.101,47.999L426.7,147.1z"/>
</g>
<g>
</g>
<g>
</g>
<g>
</g>
<g>
</g>
<g>
</g>
<g>
</g>
<g>
</g>
<g>
</g>
<g>
</g>
<g>
</g>
<g>
</g>
<g>
</g>
<g>
</g>
<g>
</g>
<g>
</g>
</svg>
