<?xml version="1.0" encoding="iso-8859-1"?>
<!-- Generator: Adobe Illustrator 19.0.0, SVG Export Plug-In . SVG Version: 6.00 Build 0)  -->
<svg version="1.1" id="Capa_1" xmlns="http://www.w3.org/2000/svg" xmlns:xlink="http://www.w3.org/1999/xlink" x="0px" y="0px"
	 viewBox="0 0 512 512" style="enable-background:new 0 0 512 512;" xml:space="preserve">
<path style="fill:#87DCFA;" d="M512,256c0,140.487-113.677,256-256,256C114.047,512,0,396.835,0,256C0,114.615,114.615,0,256,0
	C397.649,0,512,114.857,512,256z"/>
<path style="fill:#69B482;" d="M484.618,93.895V371.25c-7.628,15.129-16.72,29.404-27.097,42.637H283.655
	c-2.96,0-5.51-2.054-6.174-4.952c-1.665-7.406-7.87-17.657-21.482-17.657c-14.518,0-19.849,10.725-21.408,17.647
	c-0.653,2.897-3.203,4.962-6.174,4.962H54.479C44.112,400.665,35.02,386.4,27.382,371.282V93.895
	c0-7.859,6.374-14.244,14.244-14.244h428.749C478.245,79.651,484.618,86.035,484.618,93.895z"/>
<path style="fill:#509169;" d="M484.618,93.895V371.25c-7.628,15.129-16.72,29.404-27.097,42.637H283.655
	c-2.96,0-5.51-2.054-6.174-4.952c-1.665-7.406-7.87-17.657-21.482-17.657V79.651h214.375
	C478.245,79.651,484.618,86.035,484.618,93.895z"/>
<path style="fill:#5AA073;" d="M484.618,208.457V371.25c-7.628,15.129-16.72,29.404-27.097,42.637H283.655
	c-2.96,0-5.51-2.054-6.174-4.952c-1.665-7.406-7.87-17.657-21.482-17.657c-14.518,0-19.849,10.725-21.408,17.647
	c-0.653,2.897-3.203,4.962-6.174,4.962H54.479C44.112,400.665,35.02,386.4,27.382,371.282V208.457L484.618,208.457L484.618,208.457z
	"/>
<path style="fill:#287D55;" d="M484.618,208.457V371.25c-7.628,15.129-16.72,29.404-27.097,42.637H283.655
	c-2.96,0-5.51-2.054-6.174-4.952c-1.665-7.406-7.87-17.657-21.482-17.657V208.457L484.618,208.457L484.618,208.457z"/>
<path style="fill:#FFE1C3;" d="M442.674,46.555H277.422C265.59,46.555,256,56.146,256,67.977c0-11.831-9.591-21.422-21.422-21.422
	H69.325c-7.867,0-14.245,6.377-14.245,14.245v304.753c0,7.867,6.377,14.245,14.245,14.245H256h186.675
	c7.867,0,14.245-6.377,14.245-14.245V60.8C456.919,52.933,450.542,46.555,442.674,46.555z"/>
<path style="fill:#FFC396;" d="M442.674,379.797H256V67.978c0-11.831,9.591-21.422,21.422-21.422h165.252
	c7.867,0,14.245,6.377,14.245,14.245v304.753C456.919,373.42,450.542,379.797,442.674,379.797z"/>
<path style="fill:#FFE1C3;" d="M256,379.797H69.325c-7.867,0-14.245-6.377-14.245-14.245V60.8c0-7.867,6.377-14.245,14.245-14.245
	h165.252c11.831,0,21.422,9.591,21.422,21.422v311.821H256z"/>
<path style="fill:#FFD7AA;" d="M256,230.623v149.171H69.323c-7.859,0-14.244-6.374-14.244-14.244V205.475
	c22.293-6.363,46.535-9.861,71.904-9.861C176.268,195.614,221.338,208.805,256,230.623z"/>
<path style="fill:#FFAF82;" d="M255.999,230.623v149.171h186.677c7.859,0,14.244-6.374,14.244-14.244V205.475
	c-22.293-6.363-46.535-9.861-71.904-9.861C335.731,195.614,290.66,208.805,255.999,230.623z"/>
<g>
	<path style="fill:#FFC396;" d="M218.599,104.055H85.853c-4.364,0-7.902-3.538-7.902-7.902c0-4.364,3.538-7.902,7.902-7.902h132.746
		c4.364,0,7.902,3.538,7.902,7.902C226.501,100.517,222.963,104.055,218.599,104.055z"/>
	<path style="fill:#FFC396;" d="M218.599,180.004H85.853c-4.364,0-7.902-3.538-7.902-7.902s3.538-7.902,7.902-7.902h132.746
		c4.364,0,7.902,3.538,7.902,7.902S222.963,180.004,218.599,180.004z"/>
	<path style="fill:#FFC396;" d="M218.599,255.953H85.853c-4.364,0-7.902-3.538-7.902-7.902s3.538-7.902,7.902-7.902h132.746
		c4.364,0,7.902,3.538,7.902,7.902S222.963,255.953,218.599,255.953z"/>
	<path style="fill:#FFC396;" d="M218.599,331.901H85.853c-4.364,0-7.902-3.538-7.902-7.902s3.538-7.902,7.902-7.902h132.746
		c4.364,0,7.902,3.538,7.902,7.902S222.963,331.901,218.599,331.901z"/>
</g>
<g>
	<path style="fill:#FF9B69;" d="M429.308,104.055H296.561c-4.364,0-7.902-3.538-7.902-7.902c0-4.364,3.538-7.902,7.902-7.902
		h132.746c4.364,0,7.902,3.538,7.902,7.902C437.209,100.517,433.671,104.055,429.308,104.055z"/>
	<path style="fill:#FF9B69;" d="M429.308,180.004H296.561c-4.364,0-7.902-3.538-7.902-7.902s3.538-7.902,7.902-7.902h132.746
		c4.364,0,7.902,3.538,7.902,7.902S433.671,180.004,429.308,180.004z"/>
	<path style="fill:#FF9B69;" d="M429.308,255.953H296.561c-4.364,0-7.902-3.538-7.902-7.902s3.538-7.902,7.902-7.902h132.746
		c4.364,0,7.902,3.538,7.902,7.902S433.671,255.953,429.308,255.953z"/>
	<path style="fill:#FF9B69;" d="M429.308,331.901H296.561c-4.364,0-7.902-3.538-7.902-7.902s3.538-7.902,7.902-7.902h132.746
		c4.364,0,7.902,3.538,7.902,7.902S433.671,331.901,429.308,331.901z"/>
</g>
<g>
</g>
<g>
</g>
<g>
</g>
<g>
</g>
<g>
</g>
<g>
</g>
<g>
</g>
<g>
</g>
<g>
</g>
<g>
</g>
<g>
</g>
<g>
</g>
<g>
</g>
<g>
</g>
<g>
</g>
</svg>
