<?xml version="1.0" encoding="utf-8"?>
<!-- Generator: Adobe Illustrator 16.0.0, SVG Export Plug-In . SVG Version: 6.00 Build 0)  -->
<!DOCTYPE svg PUBLIC "-//W3C//DTD SVG 1.1//EN" "http://www.w3.org/Graphics/SVG/1.1/DTD/svg11.dtd">
<svg version="1.1" xmlns="http://www.w3.org/2000/svg" xmlns:xlink="http://www.w3.org/1999/xlink" x="0px" y="0px" width="800px"
	 height="500px" viewBox="0 0 800 500" enable-background="new 0 0 800 500" xml:space="preserve">
<g id="vo" display="none">
	<g display="inline">
		<linearGradient id="SVGID_1_" gradientUnits="userSpaceOnUse" x1="380.582" y1="438.5977" x2="519.4492" y2="438.5977">
			<stop  offset="0" style="stop-color:#56C4C5"/>
			<stop  offset="1" style="stop-color:#564DC5"/>
		</linearGradient>
		
			<polygon fill="none" stroke="url(#SVGID_1_)" stroke-width="8" stroke-linecap="round" stroke-linejoin="round" stroke-miterlimit="10" points="
			515.449,468.091 384.582,468.091 392.904,409.104 507.121,409.104 		"/>
	</g>
	<g display="inline">
		<linearGradient id="SVGID_2_" gradientUnits="userSpaceOnUse" x1="223.9492" y1="394.1465" x2="676.0508" y2="394.1465">
			<stop  offset="0" style="stop-color:#56C4C5"/>
			<stop  offset="1" style="stop-color:#564DC5"/>
		</linearGradient>
		
			<path fill="none" stroke="url(#SVGID_2_)" stroke-width="8" stroke-linecap="round" stroke-linejoin="round" stroke-miterlimit="10" d="
			M227.949,386.2c0,12.593,10.285,22.904,22.903,22.904h398.322c12.561,0,22.876-10.312,22.876-22.904v-7.011H227.949V386.2z"/>
	</g>
	<g display="inline">
		<linearGradient id="SVGID_3_" gradientUnits="userSpaceOnUse" x1="223.9492" y1="249.5493" x2="676.0508" y2="249.5493">
			<stop  offset="0" style="stop-color:#56C4C5"/>
			<stop  offset="1" style="stop-color:#564DC5"/>
		</linearGradient>
		
			<path fill="none" stroke="url(#SVGID_3_)" stroke-width="8" stroke-linecap="round" stroke-linejoin="round" stroke-miterlimit="10" d="
			M649.175,119.909H250.853c-12.618,0-22.903,10.308-22.903,22.876v236.404h444.102V142.786
			C672.051,130.217,661.735,119.909,649.175,119.909z"/>
	</g>
	<g display="inline">
		<linearGradient id="SVGID_4_" gradientUnits="userSpaceOnUse" x1="247.3032" y1="249.2275" x2="652.7266" y2="249.2275">
			<stop  offset="0" style="stop-color:#56C4C5"/>
			<stop  offset="1" style="stop-color:#564DC5"/>
		</linearGradient>
		
			<rect x="251.303" y="143.255" fill="none" stroke="url(#SVGID_4_)" stroke-width="8" stroke-linecap="round" stroke-linejoin="round" stroke-miterlimit="10" width="397.423" height="211.944"/>
	</g>
	<g display="inline">
		<linearGradient id="SVGID_5_" gradientUnits="userSpaceOnUse" x1="503.6719" y1="304.3242" x2="540.0791" y2="304.3242">
			<stop  offset="0" style="stop-color:#56C4C5"/>
			<stop  offset="1" style="stop-color:#564DC5"/>
		</linearGradient>
		<path fill="url(#SVGID_5_)" d="M540.079,304.323c0,10.057-8.147,18.205-18.204,18.205c-10.058,0-18.203-8.148-18.203-18.205
			c0-10.052,8.146-18.203,18.203-18.203C531.932,286.12,540.079,294.271,540.079,304.323z"/>
	</g>
	<g display="inline">
		<linearGradient id="SVGID_6_" gradientUnits="userSpaceOnUse" x1="288.0908" y1="304.3242" x2="324.499" y2="304.3242">
			<stop  offset="0" style="stop-color:#56C4C5"/>
			<stop  offset="1" style="stop-color:#564DC5"/>
		</linearGradient>
		<circle fill="url(#SVGID_6_)" cx="306.295" cy="304.323" r="18.204"/>
	</g>
	<g display="inline">
		<linearGradient id="SVGID_7_" gradientUnits="userSpaceOnUse" x1="359.9497" y1="304.3242" x2="396.3608" y2="304.3242">
			<stop  offset="0" style="stop-color:#56C4C5"/>
			<stop  offset="1" style="stop-color:#564DC5"/>
		</linearGradient>
		<circle fill="url(#SVGID_7_)" cx="378.155" cy="304.323" r="18.206"/>
	</g>
	<g display="inline">
		<linearGradient id="SVGID_8_" gradientUnits="userSpaceOnUse" x1="431.8105" y1="304.3242" x2="468.2188" y2="304.3242">
			<stop  offset="0" style="stop-color:#56C4C5"/>
			<stop  offset="1" style="stop-color:#564DC5"/>
		</linearGradient>
		<path fill="url(#SVGID_8_)" d="M468.219,304.323c0,10.057-8.146,18.205-18.204,18.205c-10.054,0-18.204-8.148-18.204-18.205
			c0-10.052,8.15-18.203,18.204-18.203C460.072,286.12,468.219,294.271,468.219,304.323z"/>
	</g>
	<g display="inline">
		<linearGradient id="SVGID_9_" gradientUnits="userSpaceOnUse" x1="575.5303" y1="304.3242" x2="611.9404" y2="304.3242">
			<stop  offset="0" style="stop-color:#56C4C5"/>
			<stop  offset="1" style="stop-color:#564DC5"/>
		</linearGradient>
		<path fill="url(#SVGID_9_)" d="M611.94,304.323c0,10.057-8.148,18.205-18.206,18.205c-10.056,0-18.204-8.148-18.204-18.205
			c0-10.052,8.148-18.203,18.204-18.203C603.792,286.12,611.94,294.271,611.94,304.323z"/>
	</g>
	<g display="inline">
		<linearGradient id="SVGID_10_" gradientUnits="userSpaceOnUse" x1="288.0908" y1="330.6729" x2="324.499" y2="330.6729">
			<stop  offset="0" style="stop-color:#56C4C5"/>
			<stop  offset="1" style="stop-color:#564DC5"/>
		</linearGradient>
		<rect x="288.091" y="328.757" fill="url(#SVGID_10_)" width="36.408" height="3.832"/>
	</g>
	<g display="inline">
		<linearGradient id="SVGID_11_" gradientUnits="userSpaceOnUse" x1="359.9497" y1="330.6729" x2="396.3608" y2="330.6729">
			<stop  offset="0" style="stop-color:#56C4C5"/>
			<stop  offset="1" style="stop-color:#564DC5"/>
		</linearGradient>
		<rect x="359.95" y="328.757" fill="url(#SVGID_11_)" width="36.411" height="3.832"/>
	</g>
	<g display="inline">
		<linearGradient id="SVGID_12_" gradientUnits="userSpaceOnUse" x1="431.8105" y1="330.6729" x2="468.2188" y2="330.6729">
			<stop  offset="0" style="stop-color:#56C4C5"/>
			<stop  offset="1" style="stop-color:#564DC5"/>
		</linearGradient>
		<rect x="431.811" y="328.757" fill="url(#SVGID_12_)" width="36.408" height="3.832"/>
	</g>
	<g display="inline">
		<linearGradient id="SVGID_13_" gradientUnits="userSpaceOnUse" x1="503.6719" y1="330.6729" x2="540.0791" y2="330.6729">
			<stop  offset="0" style="stop-color:#56C4C5"/>
			<stop  offset="1" style="stop-color:#564DC5"/>
		</linearGradient>
		<rect x="503.672" y="328.757" fill="url(#SVGID_13_)" width="36.407" height="3.832"/>
	</g>
	<g display="inline">
		<linearGradient id="SVGID_14_" gradientUnits="userSpaceOnUse" x1="575.5303" y1="330.6729" x2="611.9404" y2="330.6729">
			<stop  offset="0" style="stop-color:#56C4C5"/>
			<stop  offset="1" style="stop-color:#564DC5"/>
		</linearGradient>
		<rect x="575.53" y="328.757" fill="url(#SVGID_14_)" width="36.41" height="3.832"/>
	</g>
	<linearGradient id="SVGID_15_" gradientUnits="userSpaceOnUse" x1="366.6982" y1="468.0908" x2="533.333" y2="468.0908">
		<stop  offset="0" style="stop-color:#56C4C5"/>
		<stop  offset="1" style="stop-color:#564DC5"/>
	</linearGradient>
	
		<line display="inline" fill="none" stroke="url(#SVGID_15_)" stroke-width="8" stroke-linecap="round" stroke-linejoin="round" stroke-miterlimit="10" x1="370.698" y1="468.091" x2="529.333" y2="468.091"/>
	<g display="inline">
		<linearGradient id="SVGID_16_" gradientUnits="userSpaceOnUse" x1="403.0391" y1="218.8984" x2="496.9922" y2="218.8984">
			<stop  offset="0" style="stop-color:#56C4C5"/>
			<stop  offset="1" style="stop-color:#564DC5"/>
		</linearGradient>
		
			<circle fill="none" stroke="url(#SVGID_16_)" stroke-width="8" stroke-linecap="round" stroke-linejoin="round" stroke-miterlimit="10" cx="450.016" cy="218.898" r="42.977"/>
		<g>
			<linearGradient id="SVGID_17_" gradientUnits="userSpaceOnUse" x1="433.8066" y1="218.8984" x2="472.6309" y2="218.8984">
				<stop  offset="0" style="stop-color:#56C4C5"/>
				<stop  offset="1" style="stop-color:#564DC5"/>
			</linearGradient>
			<path fill="url(#SVGID_17_)" d="M433.807,201.878c0-4.4,3.109-6.186,6.91-3.968l29.063,16.957c3.801,2.217,3.801,5.846,0,8.063
				l-29.063,16.957c-3.801,2.217-6.91,0.432-6.91-3.968V201.878z"/>
		</g>
	</g>
</g>
<g id="Capa_1">
	<linearGradient id="SVGID_18_" gradientUnits="userSpaceOnUse" x1="-263" y1="135.5" x2="-133" y2="135.5">
		<stop  offset="0" style="stop-color:#56C4C5"/>
		<stop  offset="1" style="stop-color:#564DC5"/>
	</linearGradient>
	
		<rect x="-259" y="76" fill="none" stroke="url(#SVGID_18_)" stroke-width="8" stroke-linecap="round" stroke-linejoin="round" stroke-miterlimit="10" width="122" height="119"/>
	<linearGradient id="SVGID_19_" gradientUnits="userSpaceOnUse" x1="99.4844" y1="250" x2="700.5156" y2="250">
		<stop  offset="0" style="stop-color:#56C4C5"/>
		<stop  offset="1" style="stop-color:#564DC5"/>
	</linearGradient>
	<path fill="url(#SVGID_19_)" d="M519.753,263.724c0,13.37-10.831,24.202-24.201,24.202s-24.199-10.832-24.199-24.202
		c0-13.363,10.829-24.199,24.199-24.199S519.753,250.361,519.753,263.724z M208.957,239.524c-13.368,0-24.202,10.836-24.202,24.199
		c0,13.37,10.834,24.202,24.202,24.202c13.366,0,24.2-10.832,24.2-24.202C233.157,250.361,222.323,239.524,208.957,239.524z
		 M304.488,239.524c-13.365,0-24.202,10.836-24.202,24.199c0,13.37,10.837,24.202,24.202,24.202
		c13.366,0,24.203-10.832,24.203-24.202C328.691,250.361,317.854,239.524,304.488,239.524z M400.02,239.524
		c-13.366,0-24.2,10.836-24.2,24.199c0,13.37,10.834,24.202,24.2,24.202c13.371,0,24.201-10.832,24.201-24.202
		C424.221,250.361,413.391,239.524,400.02,239.524z M591.083,239.524c-13.368,0-24.2,10.836-24.2,24.199
		c0,13.37,10.832,24.202,24.2,24.202c13.371,0,24.204-10.832,24.204-24.202C615.287,250.361,604.454,239.524,591.083,239.524z
		 M233.157,296.206h-48.402v5.095h48.402V296.206z M328.691,296.206h-48.405v5.095h48.405V296.206z M424.221,296.206h-48.401v5.095
		h48.401V296.206z M519.753,296.206h-48.4v5.095h48.4V296.206z M615.287,296.206h-48.404v5.095h48.404V296.206z M462.473,150.159
		c0-34.436-28.017-62.452-62.453-62.452c-34.436,0-62.45,28.016-62.45,62.452c0,34.436,28.015,62.451,62.45,62.451
		C434.456,212.609,462.473,184.594,462.473,150.159z M451.837,150.159c0,28.571-23.245,51.815-51.817,51.815
		c-28.571,0-51.815-23.244-51.815-51.815c0-28.572,23.244-51.816,51.815-51.816C428.592,98.342,451.837,121.587,451.837,150.159z
		 M378.474,172.786c0,5.85,4.133,8.224,9.186,5.276l38.637-22.543c5.054-2.948,5.054-7.772,0-10.72l-38.637-22.543
		c-5.053-2.948-9.186-0.574-9.186,5.275V172.786z M700.516,48.973v314.279v9.32c0,19.723-16.027,35.768-35.729,35.768H482.06
		l9.569,67.782h13.838c2.937,0,5.317,2.381,5.317,5.317s-2.381,5.317-5.317,5.317h-18.432c-0.005,0.002-0.016,0-0.025,0H313.032
		h-18.457c-2.937,0-5.317-2.381-5.317-5.317s2.381-5.317,5.317-5.317h13.837l9.562-67.782H135.25
		c-19.722,0-35.766-16.045-35.766-35.768v-9.32V48.973c0-19.702,16.044-35.73,35.766-35.73h529.537
		C684.488,13.243,700.516,29.271,700.516,48.973z M110.119,357.935h579.762V48.973c0-13.837-11.258-25.095-25.094-25.095H135.25
		c-13.857,0-25.131,11.257-25.131,25.095V357.935z M471.318,408.34H328.716l-9.562,67.782h161.734L471.318,408.34z M689.881,368.57
		H110.119v4.002c0,13.857,11.273,25.132,25.131,25.132h188.846h151.842h188.85c13.836,0,25.094-11.274,25.094-25.132V368.57z
		 M669.509,49.597v281.762c0,2.937-2.382,5.317-5.318,5.317H135.849c-2.937,0-5.317-2.381-5.317-5.317V49.597
		c0-2.937,2.381-5.318,5.317-5.318H664.19C667.127,44.279,669.509,46.661,669.509,49.597z M658.873,54.915H141.167v271.127h517.706
		V54.915z"/>
</g>
<g id="Capa_2" display="none">
	<g display="inline">
		<linearGradient id="SVGID_20_" gradientUnits="userSpaceOnUse" x1="-352.3252" y1="443.5605" x2="-204.0283" y2="443.5605">
			<stop  offset="0" style="stop-color:#56C4C5"/>
			<stop  offset="1" style="stop-color:#564DC5"/>
		</linearGradient>
		<polygon fill="none" stroke="url(#SVGID_20_)" stroke-width="8" stroke-linejoin="round" stroke-miterlimit="10" points="
			-216.956,411.942 -339.403,411.942 -348.325,475.179 -208.028,475.179 		"/>
	</g>
	<g display="inline">
		<linearGradient id="SVGID_21_" gradientUnits="userSpaceOnUse" x1="-520.2441" y1="395.9072" x2="-36.1426" y2="395.9072">
			<stop  offset="0" style="stop-color:#56C4C5"/>
			<stop  offset="1" style="stop-color:#564DC5"/>
		</linearGradient>
		<path fill="none" stroke="url(#SVGID_21_)" stroke-width="8" stroke-linejoin="round" stroke-miterlimit="10" d="
			M-516.244,387.388c0,13.5,11.026,24.555,24.554,24.555h427.023c13.466,0,24.524-11.055,24.524-24.555v-7.516h-476.102V387.388z"/>
	</g>
	<g display="inline">
		<linearGradient id="SVGID_22_" gradientUnits="userSpaceOnUse" x1="-516.2441" y1="240.8906" x2="-40.1426" y2="240.8906">
			<stop  offset="0" style="stop-color:#56C4C5"/>
			<stop  offset="1" style="stop-color:#564DC5"/>
		</linearGradient>
		<path fill="url(#SVGID_22_)" d="M-64.667,101.909H-491.69c-13.527,0-24.554,11.05-24.554,24.524v253.439h476.102V126.433
			C-40.143,112.959-51.201,101.909-64.667,101.909z"/>
	</g>
	<g display="inline">
		<linearGradient id="SVGID_23_" gradientUnits="userSpaceOnUse" x1="-491.207" y1="240.5439" x2="-65.1475" y2="240.5439">
			<stop  offset="0" style="stop-color:#56C4C5"/>
			<stop  offset="1" style="stop-color:#564DC5"/>
		</linearGradient>
		<rect x="-491.207" y="126.937" fill="url(#SVGID_23_)" width="426.06" height="227.214"/>
	</g>
	<linearGradient id="SVGID_24_" gradientUnits="userSpaceOnUse" x1="-363.2095" y1="475.1787" x2="-193.1445" y2="475.1787">
		<stop  offset="0" style="stop-color:#56C4C5"/>
		<stop  offset="1" style="stop-color:#564DC5"/>
	</linearGradient>
	
		<line display="inline" fill="none" stroke="url(#SVGID_24_)" stroke-width="8" stroke-linejoin="round" stroke-miterlimit="10" x1="-363.209" y1="475.179" x2="-193.145" y2="475.179"/>
	<linearGradient id="SVGID_25_" gradientUnits="userSpaceOnUse" x1="2.2495" y1="247.9165" x2="737.75" y2="247.9165">
		<stop  offset="0" style="stop-color:#56C4C5"/>
		<stop  offset="1" style="stop-color:#564DC5"/>
	</linearGradient>
	<path display="inline" fill="url(#SVGID_25_)" d="M574.463,84.394h-426.06c-2.209,0-4,1.791-4,4v227.215c0,2.209,1.791,4,4,4
		h426.06c2.209,0,4-1.791,4-4V88.394C578.463,86.185,576.672,84.394,574.463,84.394z M570.463,311.608h-418.06V92.394h418.06
		V311.608z M44.551,96.691l0.208-1.799c0.839-0.259,1.659-0.59,2.45-0.991l1.406,1.114c1.014,0.802,2.576,0.715,3.5-0.2l2.729-2.729
		c0.945-0.949,1.03-2.454,0.199-3.498l-1.083-1.374c0.407-0.778,0.743-1.581,1.006-2.399l1.643-0.19
		c1.332-0.151,2.336-1.275,2.336-2.616v-3.861c0-1.332-1.001-2.456-2.333-2.615l-1.608-0.188c-0.25-0.801-0.571-1.589-0.958-2.353
		l0.99-1.25c0.828-1.043,0.744-2.547-0.199-3.501l-2.723-2.723c-0.918-0.917-2.488-1.006-3.5-0.199l-1.189,0.942
		c-0.81-0.426-1.658-0.781-2.536-1.06l-0.182-1.562c-0.157-1.329-1.282-2.331-2.617-2.331H38.23c-1.335,0-2.459,1.002-2.616,2.333
		l-0.182,1.56c-0.915,0.29-1.795,0.661-2.63,1.11l-1.25-0.992c-1.015-0.803-2.574-0.718-3.501,0.2l-2.731,2.729
		c-0.944,0.949-1.028,2.454-0.198,3.498l1.084,1.374c-0.382,0.766-0.698,1.562-0.943,2.381l-1.71,0.196
		c-1.33,0.154-2.333,1.279-2.333,2.615v3.861c0,1.336,1.003,2.46,2.333,2.615l1.865,0.217c0.244,0.721,0.538,1.421,0.88,2.093
		l-1.176,1.481c-0.828,1.044-0.744,2.547,0.198,3.5l2.73,2.732c0.498,0.497,1.158,0.77,1.86,0.77c0.591,0,1.173-0.203,1.641-0.571
		l1.465-1.16c0.711,0.368,1.454,0.681,2.218,0.936l0.223,1.909c0.157,1.329,1.282,2.331,2.617,2.331h3.861
		C43.273,99.024,44.397,98.021,44.551,96.691z M37.445,96.46l-0.298-2.554c-0.047-0.401-0.33-0.735-0.718-0.846
		c-1.057-0.303-2.071-0.731-3.015-1.273c-0.155-0.089-0.327-0.133-0.499-0.133c-0.221,0-0.44,0.073-0.621,0.216l-1.982,1.57
		c-0.392,0.31-0.657,0.146-0.847-0.044l-2.725-2.727c-0.229-0.23-0.25-0.595-0.05-0.847l1.584-1.996
		c0.253-0.319,0.288-0.76,0.087-1.115c-0.515-0.909-0.927-1.886-1.224-2.905c-0.112-0.386-0.445-0.667-0.845-0.713L23.785,82.8
		c-0.322-0.038-0.564-0.308-0.564-0.628v-3.861c0-0.321,0.242-0.591,0.562-0.628l2.379-0.272c0.414-0.047,0.756-0.347,0.856-0.752
		c0.275-1.103,0.695-2.167,1.249-3.163c0.196-0.353,0.161-0.789-0.089-1.105l-1.489-1.887c-0.204-0.256-0.184-0.612,0.046-0.843
		l2.725-2.724c0.194-0.193,0.461-0.358,0.849-0.051l1.777,1.411c0.325,0.258,0.779,0.289,1.135,0.075
		c1.046-0.626,2.186-1.108,3.387-1.431c0.396-0.106,0.686-0.443,0.733-0.851l0.258-2.216c0.038-0.322,0.309-0.565,0.63-0.565h3.861
		c0.321,0,0.592,0.243,0.63,0.564l0.259,2.218c0.047,0.406,0.337,0.743,0.732,0.85c1.164,0.314,2.275,0.78,3.305,1.383
		c0.356,0.209,0.803,0.178,1.126-0.079l1.714-1.358c0.385-0.309,0.651-0.144,0.843,0.047l2.718,2.719
		c0.229,0.231,0.25,0.596,0.05,0.848l-1.397,1.764c-0.252,0.318-0.287,0.756-0.088,1.11c0.564,1.006,0.993,2.063,1.276,3.142
		c0.104,0.398,0.442,0.692,0.852,0.74l2.267,0.264c0.323,0.039,0.567,0.309,0.567,0.629v3.861c0,0.322-0.241,0.592-0.563,0.629
		l-2.302,0.267c-0.407,0.047-0.744,0.337-0.85,0.732c-0.294,1.09-0.742,2.159-1.33,3.174c-0.205,0.354-0.173,0.798,0.081,1.12
		l1.496,1.898c0.204,0.256,0.184,0.611-0.047,0.843l-2.725,2.725c-0.193,0.191-0.462,0.353-0.848,0.05l-1.92-1.521
		c-0.318-0.253-0.757-0.287-1.111-0.088c-1.025,0.577-2.114,1.016-3.234,1.306c-0.4,0.104-0.695,0.443-0.742,0.854l-0.285,2.463
		c-0.037,0.321-0.308,0.563-0.628,0.563h-3.861C37.754,97.024,37.483,96.781,37.445,96.46z M47.545,80.026
		c0-4.071-3.312-7.383-7.382-7.383c-4.069,0-7.38,3.312-7.38,7.383c0,4.069,3.311,7.38,7.38,7.38
		C44.233,87.407,47.545,84.096,47.545,80.026z M40.163,85.407c-2.967,0-5.38-2.414-5.38-5.38c0-2.968,2.414-5.383,5.38-5.383
		c2.968,0,5.382,2.415,5.382,5.383C45.545,82.993,43.131,85.407,40.163,85.407z M737.75,173.38
		c0-20.861-16.973-37.833-37.834-37.833c-20.86,0-37.832,16.972-37.832,37.833c0,19.51,14.846,35.615,33.832,37.62v112h-92.449
		V87.89c0-15.729-12.796-28.524-28.523-28.524H147.919c-15.745,0-28.554,12.796-28.554,28.524v117.324l-75.283-0.001v-87.426
		c18.988-2.004,33.833-18.11,33.833-37.62c0-20.861-16.972-37.833-37.833-37.833S2.25,59.305,2.25,80.167
		c0,19.51,14.846,35.616,33.833,37.62v91.426c0,2.209,1.791,4,4,4l79.283,0.001v128.114v7.516c0,15.745,12.809,28.555,28.554,28.555
		h92.433v34.269H98.87c-2.005-18.987-18.11-33.833-37.62-33.833c-20.861,0-37.833,16.972-37.833,37.833S40.389,453.5,61.25,453.5
		c19.51,0,35.615-14.846,37.62-33.833h145.482c2.209,0,4-1.791,4-4v-38.269h47.25l-7.793,55.237H276.4v8h14.884h140.297h14.883v-8
		h-11.407l-7.799-55.237h147.685c15.728,0,28.523-12.81,28.523-28.555v-7.516V331h96.449c2.209,0,4-1.791,4-4V211
		C722.903,208.995,737.75,192.89,737.75,173.38z M6.25,80.167c0-18.656,15.178-33.833,33.833-33.833s33.833,15.178,33.833,33.833
		S58.739,114,40.083,114S6.25,98.822,6.25,80.167z M61.25,449.5c-18.656,0-33.833-15.178-33.833-33.833s15.178-33.833,33.833-33.833
		s33.833,15.178,33.833,33.833S79.906,449.5,61.25,449.5z M127.366,87.89c0-11.317,9.22-20.524,20.554-20.524h427.024
		c11.316,0,20.523,9.207,20.523,20.524v249.438H127.366V87.89z M426.978,432.636H295.889l7.793-55.237H419.18L426.978,432.636z
		 M595.467,348.844c0,11.334-9.207,20.555-20.523,20.555H422.654H300.207H147.919c-11.333,0-20.554-9.221-20.554-20.555v-3.516
		h468.101V348.844z M699.916,207.213c-18.655,0-33.832-15.178-33.832-33.833s15.177-33.833,33.832-33.833
		c18.656,0,33.834,15.178,33.834,33.833S718.572,207.213,699.916,207.213z M699.92,148.5c-9.078,0-16.463,7.385-16.463,16.461
		c0,2.542,0.59,5.004,1.754,7.323c0.021,0.103,0.06,0.203,0.114,0.298l6.284,10.856v3.449c0,0.552,0.447,1,1,1h14.617
		c0.553,0,1-0.448,1-1v-3.449l5.662-9.788c0.055-0.084,0.103-0.17,0.15-0.256l0.447-0.837c1.256-2.404,1.893-4.959,1.893-7.596
		C716.379,155.885,708.995,148.5,699.92,148.5z M696.965,180.738l-1.436-6.886h8.781l-1.438,6.939
		c-0.014,0.067-0.021,0.135-0.021,0.203v4.893h-5.865v-4.945C696.986,180.874,696.979,180.805,696.965,180.738z M712.714,171.629
		l-0.42,0.789c-0.028,0.051-0.057,0.103-0.112,0.192l-5.82,10.059c-0.089,0.152-0.135,0.325-0.135,0.501v2.718h-1.375v-4.79
		l1.667-8.042c0.061-0.295-0.014-0.601-0.204-0.834c-0.189-0.233-0.475-0.369-0.775-0.369h-11.24c-0.301,0-0.586,0.136-0.776,0.369
		c-0.189,0.234-0.264,0.541-0.202,0.835l1.666,7.989v4.842h-1.377v-2.718c0-0.176-0.047-0.349-0.135-0.501l-6.267-10.827
		c-0.019-0.068-0.045-0.134-0.078-0.198c-1.11-2.113-1.673-4.361-1.673-6.682c0-7.974,6.488-14.461,14.463-14.461
		c7.973,0,14.459,6.487,14.459,14.461C714.379,167.272,713.818,169.516,712.714,171.629z M708.227,190.507c0,0.552-0.447,1-1,1
		h-14.617c-0.553,0-1-0.448-1-1s0.447-1,1-1h14.617C707.779,189.507,708.227,189.955,708.227,190.507z M706.539,193.884
		c0,0.552-0.447,1-1,1h-11.24c-0.553,0-1-0.448-1-1s0.447-1,1-1h11.24C706.092,192.884,706.539,193.332,706.539,193.884z
		 M704.852,197.26c0,0.552-0.447,1-1,1h-7.865c-0.553,0-1-0.448-1-1s0.447-1,1-1h7.865
		C704.404,196.26,704.852,196.708,704.852,197.26z M81.524,414.605l-10.35-9.068c0.433-0.75,0.7-1.608,0.7-2.536
		c0-2.82-2.294-5.114-5.115-5.114c-2.82,0-5.114,2.294-5.114,5.114c0,1.665,0.812,3.132,2.046,4.065l-7.863,16.331
		c-0.408-0.105-0.828-0.179-1.269-0.179c-1.22,0-2.327,0.447-3.207,1.163l-8.992-7.438c0.39-0.722,0.632-1.535,0.632-2.411
		c0-2.82-2.295-5.114-5.115-5.114c-2.82,0-5.114,2.294-5.114,5.114s2.294,5.114,5.114,5.114c1.22,0,2.327-0.447,3.208-1.163
		l8.992,7.438c-0.39,0.722-0.632,1.535-0.632,2.411c0,2.82,2.294,5.114,5.114,5.114c2.82,0,5.115-2.294,5.115-5.114
		c0-1.664-0.812-3.132-2.046-4.066l7.863-16.33c0.408,0.104,0.828,0.178,1.268,0.178c1.169,0,2.235-0.41,3.098-1.072l10.35,9.067
		c-0.434,0.751-0.701,1.61-0.701,2.538c0,2.82,2.294,5.114,5.114,5.114c2.82,0,5.115-2.294,5.115-5.114s-2.294-5.115-5.115-5.115
		C83.452,413.533,82.387,413.943,81.524,414.605z M34.765,414.533c0-1.717,1.397-3.114,3.114-3.114c1.718,0,3.115,1.397,3.115,3.114
		c0,0.674-0.22,1.294-0.585,1.804c-0.061,0.046-0.126,0.082-0.177,0.143c-0.051,0.062-0.075,0.135-0.109,0.203
		c-0.567,0.592-1.361,0.965-2.244,0.965C36.162,417.647,34.765,416.25,34.765,414.533z M54.56,431.448
		c-1.717,0-3.114-1.397-3.114-3.114c0-0.682,0.226-1.307,0.598-1.82c0.055-0.043,0.118-0.07,0.164-0.126
		c0.052-0.062,0.077-0.137,0.111-0.207c0.567-0.591,1.36-0.962,2.241-0.962c0.232,0,0.457,0.03,0.675,0.078
		c0.084,0.244,0.26,0.456,0.511,0.577c0.14,0.067,0.288,0.099,0.433,0.099c0.11,0,0.216-0.023,0.319-0.058
		c0.712,0.571,1.177,1.438,1.177,2.419C57.675,430.051,56.278,431.448,54.56,431.448z M66.086,406.037
		c-0.084-0.244-0.26-0.456-0.511-0.577c-0.246-0.118-0.516-0.125-0.756-0.043c-0.709-0.571-1.173-1.437-1.173-2.416
		c0-1.717,1.397-3.114,3.114-3.114s3.115,1.397,3.115,3.114s-1.397,3.114-3.115,3.114C66.528,406.115,66.304,406.086,66.086,406.037
		z M87.735,418.648c0,1.717-1.397,3.114-3.115,3.114s-3.114-1.397-3.114-3.114c0-1.718,1.397-3.115,3.114-3.115
		S87.735,416.931,87.735,418.648z M426.562,293H295.438c-0.989,0-1.79-0.801-1.79-1.791V115.791c0-0.988,0.801-1.791,1.79-1.791
		h131.124c0.989,0,1.791,0.802,1.791,1.791v175.418C428.353,292.199,427.551,293,426.562,293z M297.228,289.42h127.544V117.581
		H297.228V289.42z M357.019,175.249c0-0.989-0.802-1.791-1.791-1.791h-47.253v-39.099c0-0.988-0.801-1.791-1.79-1.791
		s-1.79,0.802-1.79,1.791v40.89c0,0.988,0.801,1.79,1.79,1.79h49.043C356.217,177.039,357.019,176.237,357.019,175.249z
		 M328.533,163.249c0.269-0.059,0.495-0.237,0.615-0.486l9.087-18.87l13.166,11.535c0.371,0.326,0.937,0.289,1.263-0.083
		c0.326-0.372,0.289-0.938-0.083-1.264l-14.052-12.311c-0.211-0.184-0.496-0.26-0.769-0.203c-0.274,0.055-0.506,0.236-0.627,0.488
		l-9.102,18.901l-12.243-10.128c-0.381-0.315-0.945-0.263-1.26,0.118c-0.315,0.381-0.262,0.945,0.119,1.26l13.124,10.856
		c0.162,0.135,0.364,0.207,0.57,0.207C328.406,163.271,328.47,163.263,328.533,163.249z M415.647,172.37
		c0-1.583-1.41-2.879-3.133-2.879h-44.603c-1.723,0-3.133,1.296-3.133,2.879s1.41,2.879,3.133,2.879h44.603
		C414.237,175.249,415.647,173.953,415.647,172.37z M408.524,192.644c0-1.583-1.41-2.878-3.133-2.878h-88.783
		c-1.723,0-3.133,1.295-3.133,2.878s1.41,2.879,3.133,2.879h88.783C407.114,195.522,408.524,194.227,408.524,192.644z
		 M403.945,203.107c0-1.583-1.41-2.877-3.132-2.877h-79.626c-1.723,0-3.133,1.294-3.133,2.877s1.41,2.878,3.133,2.878h79.626
		C402.535,205.985,403.945,204.69,403.945,203.107z M415.647,157.981c0-1.583-1.41-2.878-3.133-2.878h-44.603
		c-1.723,0-3.133,1.295-3.133,2.878c0,1.584,1.41,2.878,3.133,2.878h44.603C414.237,160.859,415.647,159.565,415.647,157.981z
		 M415.647,143.594c0-1.584-1.41-2.879-3.133-2.879h-44.603c-1.723,0-3.133,1.295-3.133,2.879c0,1.583,1.41,2.878,3.133,2.878
		h44.603C414.237,146.472,415.647,145.177,415.647,143.594z M351.82,260.398c0-1.583-1.409-2.878-3.132-2.878h-39.37
		c-1.724,0-3.133,1.295-3.133,2.878c0,1.584,1.409,2.879,3.133,2.879h39.37C350.411,263.277,351.82,261.982,351.82,260.398z
		 M351.82,246.01c0-1.583-1.409-2.878-3.132-2.878h-39.37c-1.724,0-3.133,1.296-3.133,2.878c0,1.583,1.409,2.878,3.133,2.878h39.37
		C350.411,248.888,351.82,247.593,351.82,246.01z M351.82,231.623c0-1.583-1.409-2.879-3.132-2.879h-39.37
		c-1.724,0-3.133,1.296-3.133,2.879c0,1.583,1.409,2.877,3.133,2.877h39.37C350.411,234.5,351.82,233.206,351.82,231.623z
		 M390.213,220.577v25.433l-19.332,16.517c4.664,5.455,11.592,8.917,19.332,8.917c14.046,0,25.434-11.388,25.434-25.434
		C415.647,231.963,404.26,220.577,390.213,220.577z M381.533,247.376l-12.939,11.056c-2.29-3.272-3.698-7.084-4.084-11.056H381.533
		 M387.597,245.139h0.002H387.597z M387.597,245.139h-25.434c0,6.306,2.302,12.073,6.102,16.518L387.597,245.139L387.597,245.139z
		 M362.163,242.523h25.434v-25.435C373.55,217.088,362.163,228.475,362.163,242.523z M315.218,148.281
		c-1.788,0-3.237,1.449-3.237,3.237c0,1.788,1.449,3.237,3.237,3.237c1.788,0,3.237-1.449,3.237-3.237
		C318.455,149.73,317.005,148.281,315.218,148.281z M328.341,159.138c-1.788,0-3.236,1.449-3.236,3.236
		c0,1.789,1.449,3.238,3.236,3.238c1.789,0,3.238-1.449,3.238-3.238C331.579,160.587,330.13,159.138,328.341,159.138z
		 M337.939,139.207c-1.788,0-3.237,1.45-3.237,3.238c0,1.787,1.449,3.236,3.237,3.236c1.788,0,3.237-1.449,3.237-3.236
		C341.177,140.657,339.728,139.207,337.939,139.207z M351.991,151.518c-1.788,0-3.237,1.448-3.237,3.238
		c0,1.787,1.449,3.236,3.237,3.236c1.788,0,3.237-1.449,3.237-3.236C355.228,152.966,353.779,151.518,351.991,151.518z"/>
</g>
</svg>
