<?xml version="1.0" encoding="iso-8859-1"?>
<!-- Generator: Adobe Illustrator 19.0.0, SVG Export Plug-In . SVG Version: 6.00 Build 0)  -->
<svg version="1.1" id="Capa_1" xmlns="http://www.w3.org/2000/svg" xmlns:xlink="http://www.w3.org/1999/xlink" x="0px" y="0px"
	 viewBox="0 0 512 512" style="enable-background:new 0 0 512 512;" xml:space="preserve">
<path style="fill:#FF4C4C;" d="M510.106,343.764c-155.918-101.256-352.289-101.259-508.212,0c-2.58,1.676-2.514,5.473,0.137,7.035
	c10.074,5.934,23.769,13.821,28.678,16.644c1.156,0.665,1.918,1.839,2.049,3.166c0.617,6.258,2.563,25.075,4.795,37.402
	c0.524,2.893,3.814,4.334,6.286,2.742c130.858-84.24,293.461-84.241,424.321,0c2.472,1.591,5.762,0.15,6.286-2.743
	c2.232-12.327,4.178-31.144,4.795-37.402c0.131-1.327,0.893-2.501,2.049-3.166c4.91-2.823,18.604-10.711,28.678-16.644
	C512.62,349.237,512.687,345.44,510.106,343.764z"/>
<path style="fill:#EA2828;" d="M510.106,343.764c-11.787-7.654-23.809-14.715-36.023-21.212c-0.069,0.034-0.135,0.066-0.136,0.066
	c-11.705,7.02-36.447,21.218-36.447,21.218s-3.047,32.661-6.282,45.777c12.55,6.333,24.882,13.375,36.942,21.139
	c2.472,1.591,5.762,0.15,6.286-2.743c2.232-12.327,4.178-31.144,4.795-37.402c0.131-1.327,0.893-2.501,2.049-3.166
	c4.91-2.823,18.604-10.711,28.678-16.644C512.62,349.237,512.686,345.44,510.106,343.764z"/>
<path style="fill:#FEE570;" d="M468.716,346.961C403.12,310.819,330.22,291.853,256,291.853s-147.119,18.965-212.716,55.108
	c0,0-14.723,7.708-25.036,13.292c5.321,3.081,9.998,5.773,12.462,7.19c1.156,0.665,1.918,1.839,2.049,3.166
	c0.318,3.223,0.989,9.778,1.869,17.06c11.604-6.501,22.721-12.885,22.721-12.885c61.463-33.608,129.543-51.244,198.652-51.244
	c69.108,0,137.189,17.636,198.652,51.244c0,0,10.293,5.892,22.713,12.95c0.884-7.308,1.558-13.893,1.877-17.125
	c0.131-1.327,0.893-2.501,2.049-3.166c2.335-1.343,6.666-3.836,11.64-6.715C480.373,353.652,468.716,346.961,468.716,346.961z"/>
<path style="fill:#E1EFFB;" d="M486.263,204.642c-0.004-0.021-0.004-0.042-0.007-0.063c-0.046-0.248-0.112-0.492-0.186-0.733
	c-0.012-0.041-0.018-0.083-0.031-0.124l0,0c-0.728-2.249-2.629-4.119-5.348-4.514l-151.154-21.964L261.939,40.275
	c-0.152-0.308-0.322-0.596-0.507-0.865c-2.782-4.038-9.093-3.749-11.37,0.865l-67.598,136.968l-64.595,9.386L31.31,199.208
	c-0.215,0.031-0.415,0.087-0.62,0.136c-0.119,0.029-0.245,0.045-0.36,0.079c-0.109,0.032-0.206,0.081-0.312,0.118
	c-0.199,0.07-0.401,0.136-0.588,0.223c-0.059,0.028-0.111,0.065-0.169,0.094c-0.222,0.111-0.442,0.226-0.646,0.359
	c-0.039,0.025-0.071,0.057-0.109,0.083c-0.215,0.147-0.424,0.301-0.617,0.47c-0.008,0.007-0.014,0.015-0.022,0.022
	c-0.218,0.193-0.422,0.399-0.61,0.617c-0.021,0.025-0.037,0.053-0.058,0.077c-0.17,0.204-0.333,0.415-0.477,0.636
	c-0.014,0.021-0.024,0.045-0.037,0.066c-0.145,0.229-0.28,0.464-0.396,0.709c-0.008,0.016-0.012,0.034-0.02,0.05
	c-0.117,0.252-0.222,0.509-0.307,0.773l0,0l0,0c-0.727,2.245-0.286,4.868,1.678,6.782l109.376,106.615l-11.733,68.41l-14.087,82.133
	c-0.058,0.338-0.09,0.672-0.098,0.999c-0.002,0.063,0.009,0.122,0.009,0.184c0.001,0.262,0.006,0.523,0.037,0.776
	c0.001,0.009,0.004,0.017,0.005,0.027c0.038,0.303,0.096,0.6,0.174,0.888c0.01,0.038,0.027,0.072,0.038,0.109
	c0.075,0.257,0.159,0.51,0.263,0.752c0.001,0.001,0.001,0.002,0.002,0.003c0.239,0.553,0.552,1.064,0.924,1.524
	c0.001,0.001,0.002,0.002,0.003,0.003c0.373,0.46,0.804,0.868,1.282,1.214l0,0c1.911,1.386,4.543,1.778,6.971,0.502L256,403.566
	l135.196,71.077c1.202,0.632,2.453,0.852,3.642,0.748c0.012-0.001,0.025,0,0.037-0.001c1.158-0.108,2.253-0.531,3.187-1.183
	c0.034-0.024,0.071-0.042,0.105-0.066l0,0c1.913-1.388,3.102-3.773,2.638-6.48l-25.82-150.543l0,0l109.376-106.615l0,0
	c0.245-0.239,0.467-0.49,0.666-0.749c0.089-0.117,0.157-0.241,0.237-0.361c0.098-0.147,0.206-0.291,0.29-0.442
	c0.087-0.157,0.151-0.32,0.224-0.481c0.055-0.121,0.122-0.24,0.169-0.363c0.072-0.188,0.119-0.381,0.172-0.573
	c0.028-0.1,0.067-0.198,0.09-0.299c0.062-0.274,0.101-0.551,0.127-0.827c0.002-0.02,0.007-0.039,0.009-0.059
	c0.022-0.26,0.021-0.52,0.013-0.779c-0.001-0.037,0.004-0.075,0.002-0.112C486.345,205.184,486.31,204.911,486.263,204.642z"/>
<g>
	<path style="fill:#C3D8E5;" d="M261.939,40.275c-1.215-2.461-3.577-3.692-5.939-3.692v242.095l73.537-101.435L261.939,40.275z"/>
	<path style="fill:#C3D8E5;" d="M25.962,203.721L256,278.679l-73.537-101.435L31.31,199.208
		C28.591,199.603,26.69,201.471,25.962,203.721z"/>
	<path style="fill:#C3D8E5;" d="M486.038,203.721L256,278.679l118.985,38.439l109.376-106.615
		C486.324,208.59,486.765,205.967,486.038,203.721z"/>
	<path style="fill:#C3D8E5;" d="M113.833,474.141L256,278.679l-118.985,38.439l-25.82,150.543
		C110.731,470.368,111.921,472.753,113.833,474.141z"/>
	<path style="fill:#C3D8E5;" d="M398.167,474.141L256,278.679v124.887l135.196,71.077
		C393.624,475.919,396.256,475.527,398.167,474.141z"/>
</g>
<circle style="fill:#61AFF6;" cx="256" cy="278.82" r="88.86"/>
<path style="fill:#49A0E8;" d="M256,189.967c-8.142,0-16.019,1.117-23.51,3.168c37.66,10.31,65.345,44.756,65.345,85.688
	s-27.685,75.377-65.345,85.688c7.491,2.051,15.368,3.168,23.51,3.168c49.073,0,88.855-39.782,88.855-88.855
	S305.073,189.967,256,189.967z"/>
<path style="fill:#F4D658;" d="M484.798,365.424c2.259-1.301,5.072-2.924,8.133-4.696c-12.558-7.076-24.215-13.767-24.215-13.767
	c-6.354-3.501-12.778-6.836-19.264-10.013c-6.754,3.905-11.953,6.888-11.953,6.888s-0.923,9.888-2.291,20.967
	c6.547,3.156,13.033,6.476,19.443,9.981c0,0,10.293,5.892,22.713,12.95c0.657-5.435,1.198-10.467,1.564-14.02
	c0.004-0.039,0.008-0.079,0.012-0.118c0.026-0.254,0.051-0.498,0.075-0.736c0.004-0.036,0.008-0.075,0.011-0.111
	c0.052-0.507,0.098-0.973,0.141-1.4c0.004-0.036,0.008-0.076,0.011-0.111c0.022-0.222,0.043-0.433,0.062-0.63
	c0.131-1.327,0.893-2.501,2.049-3.166c0.771-0.444,1.778-1.022,2.936-1.69C484.417,365.644,484.598,365.539,484.798,365.424z"/>
<path style="fill:#E1EFFB;" d="M255.854,227.277c-1.691,0-2.818,0.563-3.804,1.55l-14.651,14.088
	c-1.832,1.268-2.959,3.663-2.959,5.776c0,2.959,2.113,6.058,5.071,6.058c0.845,0,2.113-0.422,3.1-1.409l4.931-6.199v78.329
	c0,3.24,3.663,4.931,7.467,4.931c3.663,0,7.467-1.69,7.467-4.931v-93.263C262.475,229.109,258.954,227.277,255.854,227.277z"/>
<g>
</g>
<g>
</g>
<g>
</g>
<g>
</g>
<g>
</g>
<g>
</g>
<g>
</g>
<g>
</g>
<g>
</g>
<g>
</g>
<g>
</g>
<g>
</g>
<g>
</g>
<g>
</g>
<g>
</g>
</svg>
