<?xml version="1.0" encoding="iso-8859-1"?>
<!-- Generator: Adobe Illustrator 19.0.0, SVG Export Plug-In . SVG Version: 6.00 Build 0)  -->
<svg version="1.1" id="Capa_1" xmlns="http://www.w3.org/2000/svg" xmlns:xlink="http://www.w3.org/1999/xlink" x="0px" y="0px"
	 viewBox="0 0 512 512" style="enable-background:new 0 0 512 512;" xml:space="preserve">
<polygon style="fill:#742466;" points="343.565,295.662 281.755,295.662 312.66,490.185 343.565,512 "/>
<polygon style="fill:#BA1956;" points="168.435,295.662 168.435,512 256,450.189 312.66,490.185 312.66,295.662 "/>
<path style="fill:#FF415D;" d="M347.956,24.614l67.317,67.317c15.652,27.05,24.614,58.456,24.614,91.956l-24.614,91.956
	c-16.146,27.905-39.413,51.171-67.317,67.317L182.001,183.887L256,0C289.5,0,320.906,8.963,347.956,24.614z"/>
<g>
	<path style="fill:#FF0F47;" d="M347.956,24.614c27.905,16.146,51.171,39.412,67.317,67.317L256,183.887L347.956,24.614z"/>
	<path style="fill:#FF0F47;" d="M439.887,183.887c0,33.5-8.963,64.906-24.614,91.956L256,183.887H439.887z"/>
	<path style="fill:#FF0F47;" d="M347.956,343.161c-27.05,15.652-58.456,24.614-91.956,24.614l-29.599-91.944L256,183.887
		L347.956,343.161z"/>
</g>
<path style="fill:#FF7472;" d="M164.044,24.614L96.727,91.931c-15.652,27.05-24.614,58.456-24.614,91.956l24.614,91.956
	c16.146,27.905,39.412,51.171,67.317,67.317l75.578-50.037L256,183.887V0C222.5,0,191.094,8.963,164.044,24.614z"/>
<g>
	<path style="fill:#FF3744;" d="M164.044,24.614c-27.905,16.146-51.171,39.412-67.317,67.317L256,183.887L164.044,24.614z"/>
	<path style="fill:#FF3744;" d="M72.113,183.887c0,33.5,8.963,64.906,24.614,91.956L256,183.887H72.113z"/>
	<path style="fill:#FF3744;" d="M164.044,343.161c27.05,15.652,58.456,24.614,91.956,24.614V183.887L164.044,343.161z"/>
</g>
<path style="fill:#BA1956;" d="M256,41.207l-30.905,142.68L256,326.567c78.8,0,142.68-63.88,142.68-142.68S334.8,41.207,256,41.207z
	"/>
<path style="fill:#FF0F47;" d="M113.32,183.887c0,78.8,63.88,142.68,142.68,142.68V41.207
	C177.2,41.207,113.32,105.088,113.32,183.887z"/>
<path style="fill:#FF7472;" d="M256,72.113v223.549c61.732,0,111.775-50.043,111.775-111.775S317.732,72.113,256,72.113z"/>
<path style="fill:#FFA688;" d="M336.869,183.887c0-61.732-36.207-111.775-80.869-111.775c-61.732,0-111.775,50.043-111.775,111.775
	S194.268,295.662,256,295.662C300.662,295.662,336.869,245.619,336.869,183.887z"/>
<g>
</g>
<g>
</g>
<g>
</g>
<g>
</g>
<g>
</g>
<g>
</g>
<g>
</g>
<g>
</g>
<g>
</g>
<g>
</g>
<g>
</g>
<g>
</g>
<g>
</g>
<g>
</g>
<g>
</g>
</svg>
